<svg width="144" height="176" viewBox="0 0 144 176" fill="none" xmlns="http://www.w3.org/2000/svg">
<path d="M143.08 116.25C143.08 133.07 143.07 149.88 143.09 166.7C143.09 170.12 142.95 173.43 139.33 175.26C135.62 177.13 133.1 175.03 130.46 172.81C124.22 167.56 123.29 167.56 116.64 172.08C109.63 176.85 101.84 176.79 94.89 171.5C90.68 168.29 87.18 168.17 82.89 171.6C76.2 176.96 67.71 176.98 60.76 171.62C56.24 168.14 52.64 168.4 48.29 171.73C41.41 177 33.1299 176.75 26.1199 171.59C20.8499 167.7 18.8199 167.79 13.8899 172.02C12.6299 173.1 11.3799 174.25 9.93995 175.04C5.76995 177.31 1.32995 175.06 0.569953 170.4C0.439953 169.58 0.449943 168.74 0.449943 167.91C0.489943 134.95 0.209949 101.98 0.659949 69.02C1.10995 35.51 27.07 6.25004 59.98 1.25004C99.42 -4.74996 134.6 20.14 141.94 59.41C142.79 63.96 143 68.67 143.04 73.31C143.17 87.61 143.08 101.93 143.08 116.25Z" fill="#FAB50D"/>
<path d="M97.51 81.25C97.51 84.56 97.62 87.88 97.48 91.18C97.33 94.86 95.27 97.01 91.6 97.28C87.9 97.55 85.23 95.67 85.05 92.02C84.71 84.93 84.72 77.81 85 70.71C85.15 66.98 87.9 65.18 91.5 65.34C95.11 65.5 97.33 67.54 97.45 71.32C97.55 74.63 97.47 77.94 97.47 81.25C97.48 81.25 97.49 81.25 97.51 81.25Z" fill="#5188B5"/>
<path d="M58.58 81.59C58.57 84.75 58.65 87.92 58.55 91.08C58.43 94.77 56.5901 97.0801 52.7601 97.2301C49.1801 97.3701 46.4501 95.8701 46.1001 92.0101C45.4601 84.8801 45.3701 77.72 46.1601 70.59C46.5801 66.77 49.2101 65.1 52.8101 65.33C56.5101 65.57 58.4801 67.86 58.5601 71.59C58.6401 74.93 58.58 78.26 58.58 81.59Z" fill="#5188B5"/>
</svg>
