<svg width="549" height="208" viewBox="0 0 549 208" fill="none" xmlns="http://www.w3.org/2000/svg">
<path d="M275.24 24.11C272.05 24.11 268.85 24.04 265.66 24.14C264.06 24.19 263.35 23.82 263.37 22.02C263.47 15.54 263.44 9.04999 263.38 2.55999C263.37 1.14999 263.82 0.649998 265.26 0.659998C271.85 0.719998 278.44 0.700008 285.02 0.670008C286.22 0.660008 286.85 0.959981 286.84 2.32998C286.8 9.01998 286.78 15.7 286.85 22.39C286.87 24 286.06 24.14 284.81 24.12C281.63 24.08 278.43 24.11 275.24 24.11Z" fill="#406283"/>
<path d="M289.41 12.13C289.41 8.93998 289.47 5.73996 289.39 2.54996C289.35 1.10996 289.88 0.659991 291.29 0.669991C297.88 0.719991 304.47 0.729991 311.06 0.669991C312.6 0.649991 312.86 1.31997 312.85 2.64997C312.81 9.13997 312.79 15.63 312.86 22.12C312.88 23.69 312.37 24.17 310.8 24.15C304.31 24.08 297.82 24.07 291.33 24.15C289.65 24.17 289.34 23.48 289.38 22.02C289.47 18.72 289.41 15.43 289.41 12.13Z" fill="#406283"/>
<path d="M117.33 2.06997C120.53 2.06997 123.73 2.12997 126.93 2.03997C128.35 1.99997 128.85 2.45996 128.84 3.90996C128.78 10.41 128.78 16.91 128.84 23.4C128.85 24.91 128.42 25.53 126.81 25.51C120.31 25.44 113.81 25.44 107.31 25.51C105.62 25.53 105.35 24.72 105.36 23.31C105.4 16.91 105.41 10.51 105.35 4.11995C105.34 2.55995 105.87 1.99997 107.43 2.03997C110.73 2.12997 114.03 2.06997 117.33 2.06997Z" fill="#406283"/>
<path d="M131.45 13.81C131.45 10.62 131.49 7.41998 131.43 4.22998C131.4 2.82998 131.6 2.00998 133.33 2.03998C139.92 2.11998 146.5 2.10996 153.09 2.04996C154.63 2.03996 154.9 2.72996 154.89 4.04996C154.85 10.54 154.83 17.02 154.9 23.51C154.92 25.1 154.36 25.55 152.83 25.53C146.34 25.46 139.85 25.45 133.37 25.54C131.69 25.56 131.38 24.86 131.42 23.4C131.5 20.2 131.45 17 131.45 13.81Z" fill="#406283"/>
<path d="M274.94 50.49C271.85 50.49 268.75 50.42 265.66 50.52C264.05 50.57 263.35 50.18 263.37 48.39C263.46 42.01 263.46 35.62 263.37 29.24C263.35 27.54 263.89 27.02 265.58 27.04C271.97 27.12 278.35 27.11 284.74 27.05C286.22 27.04 286.88 27.39 286.86 29.04C286.78 35.52 286.78 42.01 286.86 48.49C286.88 50.07 286.36 50.57 284.81 50.52C281.52 50.42 278.23 50.49 274.94 50.49Z" fill="#406283"/>
<path d="M91.02 51.69C87.82 51.69 84.62 51.61 81.43 51.72C79.79 51.78 79.16 51.34 79.18 49.58C79.28 43.19 79.28 36.8 79.18 30.41C79.15 28.67 79.74 28.22 81.4 28.25C87.69 28.33 93.99 28.34 100.28 28.25C102.04 28.22 102.73 28.6 102.69 30.54C102.57 36.83 102.57 43.12 102.69 49.41C102.72 51.29 102.14 51.82 100.31 51.74C97.21 51.59 94.11 51.69 91.02 51.69Z" fill="#406283"/>
<path d="M128.82 40.18C128.82 43.38 128.77 46.58 128.84 49.78C128.87 51.16 128.46 51.73 126.98 51.72C120.48 51.66 113.97 51.66 107.47 51.72C105.95 51.73 105.34 51.3 105.36 49.7C105.43 43.2 105.42 36.7 105.37 30.2C105.36 28.81 105.78 28.25 107.25 28.26C113.85 28.32 120.46 28.32 127.06 28.26C128.63 28.25 128.86 29 128.84 30.29C128.79 33.58 128.82 36.88 128.82 40.18Z" fill="#406283"/>
<path d="M154.87 40.06C154.87 43.26 154.81 46.45 154.9 49.65C154.94 51.18 154.5 51.74 152.89 51.72C146.4 51.64 139.9 51.64 133.41 51.72C131.77 51.74 131.41 51.12 131.42 49.62C131.48 43.13 131.48 36.64 131.42 30.14C131.41 28.74 131.82 28.22 133.27 28.24C139.86 28.3 146.46 28.3 153.05 28.24C154.53 28.23 154.92 28.79 154.89 30.17C154.82 33.47 154.87 36.77 154.87 40.06Z" fill="#406283"/>
<path d="M90.86 54.28C94.15 54.28 97.45 54.33 100.74 54.26C102.13 54.23 102.68 54.66 102.67 56.12C102.61 62.7 102.61 69.29 102.67 75.87C102.68 77.35 102.11 77.72 100.73 77.71C94.24 77.66 87.76 77.65 81.27 77.72C79.76 77.73 79.17 77.33 79.19 75.72C79.27 69.24 79.27 62.75 79.19 56.27C79.17 54.66 79.75 54.21 81.28 54.26C84.47 54.34 87.66 54.28 90.86 54.28Z" fill="#406283"/>
<path d="M117.42 54.28C120.52 54.28 123.62 54.34 126.72 54.26C128.18 54.22 128.88 54.54 128.85 56.22C128.77 62.72 128.78 69.21 128.84 75.71C128.86 77.32 128.24 77.75 126.72 77.73C120.32 77.67 113.92 77.65 107.52 77.74C105.75 77.76 105.33 77.07 105.35 75.45C105.42 69.15 105.44 62.85 105.34 56.56C105.31 54.62 106.09 54.21 107.82 54.26C111.02 54.35 114.22 54.28 117.42 54.28Z" fill="#406283"/>
<path d="M143.21 54.28C146.3 54.28 149.4 54.37 152.49 54.25C154.25 54.18 154.95 54.63 154.92 56.55C154.81 62.83 154.81 69.12 154.92 75.41C154.95 77.27 154.35 77.77 152.55 77.75C146.26 77.65 139.97 77.67 133.69 77.74C132.08 77.76 131.4 77.4 131.42 75.61C131.52 69.23 131.51 62.84 131.42 56.45C131.4 54.74 131.94 54.19 133.63 54.25C136.82 54.36 140.01 54.28 143.21 54.28Z" fill="#406283"/>
<path d="M406.15 77.7C402.95 77.7 399.74 77.64 396.55 77.73C394.97 77.77 394.48 77.19 394.5 75.65C394.56 69.15 394.56 62.65 394.5 56.15C394.49 54.71 394.96 54.26 396.39 54.27C402.89 54.33 409.4 54.33 415.9 54.27C417.46 54.25 417.99 54.76 417.98 56.33C417.91 62.83 417.92 69.33 417.97 75.83C417.98 77.26 417.48 77.76 416.06 77.73C412.75 77.65 409.45 77.7 406.15 77.7Z" fill="#406283"/>
<path d="M76.26 92.27C76.26 95.46 76.2 98.66 76.29 101.85C76.33 103.37 75.88 103.95 74.27 103.93C67.78 103.85 61.29 103.85 54.8 103.93C53.17 103.95 52.79 103.36 52.81 101.85C52.88 95.36 52.87 88.87 52.82 82.38C52.81 80.99 53.21 80.44 54.67 80.45C61.26 80.51 67.85 80.51 74.44 80.45C75.92 80.44 76.31 81 76.28 82.38C76.21 85.68 76.26 88.98 76.26 92.27Z" fill="#406283"/>
<path d="M91.22 80.49C94.32 80.49 97.42 80.58 100.51 80.45C102.25 80.38 102.7 81 102.68 82.67C102.59 89.06 102.61 95.45 102.67 101.84C102.68 103.34 102.32 103.96 100.68 103.94C94.19 103.86 87.69 103.86 81.2 103.94C79.58 103.96 79.18 103.39 79.19 101.87C79.26 95.48 79.3 89.09 79.17 82.7C79.13 80.69 79.94 80.41 81.63 80.47C84.82 80.56 88.02 80.49 91.22 80.49Z" fill="#406283"/>
<path d="M117.34 80.49C120.44 80.49 123.54 80.53 126.64 80.47C128.05 80.44 128.87 80.66 128.85 82.39C128.77 88.99 128.8 95.59 128.84 102.19C128.85 103.48 128.38 103.94 127.09 103.93C120.49 103.89 113.88 103.88 107.28 103.93C105.85 103.94 105.36 103.44 105.37 102.02C105.42 95.52 105.43 89.02 105.36 82.52C105.34 80.95 105.88 80.42 107.44 80.47C110.73 80.55 114.03 80.49 117.34 80.49Z" fill="#406283"/>
<path d="M143.15 103.9C139.95 103.9 136.76 103.85 133.56 103.92C132.13 103.95 131.39 103.7 131.41 101.99C131.5 95.4 131.47 88.81 131.42 82.22C131.41 80.96 131.78 80.45 133.11 80.46C139.8 80.51 146.5 80.51 153.19 80.46C154.53 80.45 154.89 80.97 154.88 82.22C154.84 88.81 154.81 95.4 154.9 101.99C154.92 103.7 154.17 103.95 152.74 103.91C149.55 103.86 146.35 103.9 143.15 103.9Z" fill="#406283"/>
<path d="M417.94 92.53C417.94 95.62 417.89 98.72 417.96 101.81C418 103.28 417.64 103.96 415.98 103.94C409.39 103.86 402.81 103.88 396.22 103.93C394.94 103.94 394.47 103.51 394.48 102.2C394.53 95.52 394.53 88.83 394.48 82.15C394.47 80.79 395.09 80.47 396.29 80.48C402.88 80.51 409.46 80.53 416.05 80.47C417.47 80.46 417.97 80.94 417.94 82.36C417.89 85.75 417.94 89.14 417.94 92.53Z" fill="#406283"/>
<path d="M444.31 92.5499C444.31 95.5399 444.22 98.54 444.34 101.53C444.41 103.3 443.96 103.98 442.04 103.94C435.65 103.82 429.26 103.85 422.87 103.93C421.27 103.95 420.84 103.42 420.86 101.87C420.93 95.48 420.93 89.0899 420.86 82.7099C420.84 81.0899 421.23 80.42 423 80.44C429.39 80.53 435.78 80.53 442.17 80.44C443.9 80.42 444.4 80.99 444.35 82.66C444.23 85.96 444.31 89.2599 444.31 92.5499Z" fill="#406283"/>
<path d="M52.84 118.21C52.84 115.02 52.93 111.82 52.81 108.64C52.74 106.91 53.35 106.43 55.03 106.46C61.41 106.54 67.8 106.53 74.19 106.47C75.69 106.46 76.32 106.84 76.3 108.47C76.23 114.95 76.23 121.44 76.3 127.92C76.32 129.51 75.76 129.96 74.23 129.95C67.84 129.88 61.46 129.85 55.07 129.97C53.09 130.01 52.75 129.21 52.81 127.5C52.91 124.4 52.84 121.3 52.84 118.21Z" fill="#406283"/>
<path d="M90.97 106.49C94.16 106.49 97.36 106.55 100.55 106.47C102.03 106.43 102.7 106.79 102.68 108.45C102.6 114.93 102.6 121.42 102.68 127.91C102.7 129.48 102.18 129.97 100.63 129.95C94.14 129.88 87.65 129.87 81.17 129.95C79.51 129.97 79.19 129.31 79.2 127.83C79.26 121.44 79.28 115.06 79.19 108.67C79.17 106.97 79.68 106.4 81.39 106.46C84.57 106.57 87.77 106.49 90.97 106.49Z" fill="#406283"/>
<path d="M117.05 129.91C113.85 129.91 110.65 129.85 107.45 129.93C105.91 129.97 105.34 129.46 105.35 127.88C105.41 121.38 105.4 114.88 105.36 108.39C105.35 106.97 105.86 106.46 107.28 106.47C113.88 106.52 120.48 106.51 127.08 106.47C128.36 106.46 128.84 106.88 128.83 108.19C128.78 114.79 128.77 121.39 128.84 127.98C128.86 129.68 128.08 129.96 126.65 129.93C123.45 129.86 120.25 129.91 117.05 129.91Z" fill="#406283"/>
<path d="M143.07 129.91C139.88 129.91 136.68 129.85 133.49 129.94C131.96 129.98 131.4 129.52 131.42 127.92C131.5 121.43 131.47 114.95 131.43 108.46C131.42 107.15 131.67 106.45 133.22 106.46C139.81 106.52 146.4 106.52 152.98 106.46C154.38 106.45 154.91 106.89 154.89 108.34C154.83 114.93 154.83 121.51 154.89 128.1C154.9 129.61 154.3 129.95 152.94 129.93C149.65 129.86 146.36 129.91 143.07 129.91Z" fill="#406283"/>
<path d="M181.36 118.05C181.36 121.24 181.3 124.43 181.39 127.62C181.43 129.18 181.13 129.96 179.3 129.94C172.82 129.84 166.33 129.87 159.85 129.92C158.46 129.93 157.91 129.5 157.92 128.04C157.98 121.46 157.98 114.88 157.92 108.3C157.91 106.82 158.47 106.45 159.85 106.46C166.33 106.51 172.82 106.54 179.3 106.45C181.15 106.42 181.43 107.23 181.39 108.78C181.3 111.87 181.36 114.96 181.36 118.05Z" fill="#406283"/>
<path d="M184.31 118.06C184.31 114.87 184.38 111.67 184.28 108.49C184.23 106.9 184.8 106.45 186.35 106.46C192.74 106.53 199.12 106.53 205.51 106.46C207.14 106.44 207.8 106.85 207.77 108.62C207.68 115 207.68 121.39 207.77 127.77C207.79 129.5 207.2 129.97 205.54 129.95C199.25 129.87 192.97 129.83 186.68 129.97C184.56 130.02 184.21 129.16 184.28 127.35C184.4 124.25 184.31 121.15 184.31 118.06Z" fill="#406283"/>
<path d="M233.95 118.18C233.95 121.28 233.87 124.38 233.98 127.48C234.04 129.21 233.64 129.99 231.69 129.95C225.39 129.84 219.08 129.84 212.78 129.95C210.84 129.98 210.46 129.21 210.48 127.49C210.56 121.29 210.57 115.09 210.48 108.89C210.45 107.12 210.9 106.42 212.81 106.45C219.11 106.56 225.42 106.57 231.72 106.44C233.7 106.4 234.05 107.15 233.98 108.88C233.87 111.97 233.95 115.08 233.95 118.18Z" fill="#406283"/>
<path d="M327.38 106.49C330.57 106.49 333.76 106.54 336.95 106.47C338.38 106.44 339.11 106.7 339.09 108.4C339 114.88 339.02 121.36 339.08 127.84C339.09 129.36 338.65 129.96 337.06 129.94C330.58 129.87 324.09 129.89 317.61 129.93C316.3 129.94 315.59 129.67 315.61 128.13C315.67 121.55 315.68 114.97 315.6 108.39C315.58 106.67 316.4 106.45 317.8 106.47C321 106.53 324.19 106.49 327.38 106.49Z" fill="#406283"/>
<path d="M380.31 129.66C377.12 129.66 373.92 129.59 370.73 129.69C369.08 129.74 368.45 129.27 368.47 127.52C368.56 121.14 368.56 114.75 368.47 108.37C368.44 106.61 369.08 106.19 370.72 106.21C377.11 106.29 383.49 106.28 389.88 106.22C391.4 106.21 391.98 106.64 391.97 108.24C391.9 114.72 391.89 121.21 391.97 127.69C391.99 129.32 391.4 129.73 389.89 129.68C386.7 129.6 383.5 129.66 380.31 129.66Z" fill="#406283"/>
<path d="M406.42 106.49C409.51 106.49 412.61 106.56 415.7 106.46C417.32 106.41 418.01 106.84 417.98 108.61C417.89 114.99 417.89 121.37 417.98 127.75C418 129.48 417.4 129.95 415.74 129.93C409.36 129.85 402.97 129.87 396.59 129.92C395.08 129.93 394.47 129.5 394.49 127.9C394.56 121.42 394.57 114.94 394.49 108.46C394.47 106.85 395.02 106.41 396.55 106.45C399.84 106.55 403.13 106.49 406.42 106.49Z" fill="#406283"/>
<path d="M432.63 106.25C435.82 106.25 439.02 106.3 442.21 106.23C443.67 106.2 444.36 106.53 444.34 108.19C444.26 114.67 444.27 121.16 444.34 127.64C444.36 129.2 443.85 129.71 442.28 129.7C435.79 129.63 429.31 129.62 422.82 129.71C421.16 129.73 420.84 129.07 420.86 127.6C420.92 121.22 420.94 114.83 420.85 108.45C420.83 106.76 421.34 106.17 423.05 106.23C426.24 106.33 429.44 106.25 432.63 106.25Z" fill="#406283"/>
<path d="M458.9 129.91C455.71 129.91 452.51 129.84 449.33 129.94C447.68 129.99 447.05 129.51 447.08 127.77C447.17 121.39 447.17 115.01 447.08 108.63C447.06 106.87 447.73 106.45 449.36 106.47C455.74 106.54 462.13 106.54 468.51 106.47C470.03 106.45 470.6 106.84 470.58 108.46C470.5 114.94 470.51 121.42 470.57 127.9C470.59 129.48 470.01 129.98 468.48 129.94C465.28 129.85 462.09 129.91 458.9 129.91Z" fill="#406283"/>
<path d="M64.57 155.66C61.38 155.66 58.18 155.62 54.99 155.68C53.6 155.71 52.78 155.51 52.8 153.78C52.89 147.19 52.87 140.61 52.81 134.02C52.79 132.49 53.45 132.22 54.78 132.23C61.27 132.28 67.76 132.29 74.25 132.22C75.83 132.2 76.3 132.74 76.29 134.28C76.22 140.77 76.21 147.26 76.3 153.74C76.32 155.42 75.61 155.72 74.16 155.69C70.96 155.6 67.77 155.66 64.57 155.66Z" fill="#406283"/>
<path d="M90.91 132.24C94.11 132.24 97.3 132.29 100.5 132.22C101.91 132.19 102.7 132.41 102.68 134.13C102.6 140.72 102.6 147.31 102.68 153.9C102.7 155.46 102 155.69 100.69 155.68C94.2 155.64 87.71 155.62 81.22 155.69C79.63 155.71 79.18 155.18 79.2 153.63C79.27 147.24 79.31 140.85 79.18 134.46C79.14 132.48 79.92 132.14 81.63 132.2C84.72 132.32 87.81 132.24 90.91 132.24Z" fill="#406283"/>
<path d="M117.04 155.66C113.84 155.66 110.64 155.6 107.44 155.69C105.89 155.73 105.35 155.2 105.36 153.63C105.42 147.13 105.41 140.63 105.37 134.13C105.36 132.71 105.86 132.21 107.29 132.22C113.89 132.27 120.49 132.27 127.09 132.22C128.38 132.21 128.84 132.66 128.84 133.96C128.8 140.56 128.78 147.16 128.85 153.76C128.87 155.48 128.05 155.71 126.64 155.68C123.44 155.61 120.24 155.66 117.04 155.66Z" fill="#406283"/>
<path d="M143.16 155.66C139.96 155.66 136.76 155.57 133.57 155.7C131.82 155.77 131.39 155.13 131.41 153.47C131.49 147.08 131.48 140.69 131.42 134.3C131.4 132.79 131.8 132.19 133.42 132.21C139.91 132.29 146.4 132.29 152.89 132.21C154.52 132.19 154.91 132.8 154.89 134.3C154.83 140.69 154.81 147.08 154.9 153.47C154.92 155.13 154.48 155.76 152.74 155.7C149.55 155.57 146.35 155.66 143.16 155.66Z" fill="#406283"/>
<path d="M169.58 132.24C172.87 132.24 176.17 132.29 179.46 132.22C180.86 132.19 181.4 132.64 181.39 134.09C181.34 140.68 181.33 147.26 181.39 153.85C181.4 155.34 180.8 155.69 179.44 155.68C172.95 155.63 166.46 155.62 159.98 155.69C158.44 155.71 157.9 155.23 157.91 153.65C157.98 147.16 157.99 140.68 157.9 134.19C157.88 132.54 158.5 132.18 159.99 132.22C163.19 132.3 166.38 132.24 169.58 132.24Z" fill="#406283"/>
<path d="M184.31 143.57C184.31 140.48 184.37 137.38 184.28 134.29C184.23 132.77 184.66 132.19 186.28 132.21C192.77 132.29 199.26 132.29 205.75 132.21C207.37 132.19 207.77 132.79 207.76 134.3C207.7 140.79 207.7 147.27 207.76 153.76C207.77 155.15 207.37 155.69 205.91 155.68C199.32 155.62 192.73 155.62 186.14 155.68C184.67 155.69 184.26 155.13 184.29 153.75C184.36 150.35 184.31 146.96 184.31 143.57Z" fill="#406283"/>
<path d="M222.4 155.66C219.11 155.66 215.82 155.59 212.53 155.69C210.94 155.74 210.48 155.15 210.49 153.62C210.55 147.24 210.56 140.86 210.49 134.48C210.47 132.85 210.89 132.19 212.66 132.21C219.04 132.3 225.43 132.3 231.81 132.21C233.54 132.19 234.01 132.75 233.99 134.43C233.91 140.71 233.87 146.99 234 153.27C234.04 155.37 233.22 155.77 231.38 155.7C228.39 155.57 225.4 155.66 222.4 155.66Z" fill="#406283"/>
<path d="M312.84 144.17C312.84 147.36 312.79 150.56 312.86 153.75C312.89 155.13 312.48 155.69 311.01 155.68C304.42 155.62 297.83 155.62 291.25 155.68C289.78 155.69 289.39 155.11 289.4 153.74C289.45 147.25 289.46 140.77 289.39 134.28C289.37 132.77 289.76 132.19 291.38 132.21C297.87 132.29 304.36 132.29 310.84 132.21C312.45 132.19 312.9 132.78 312.86 134.3C312.78 137.58 312.84 140.88 312.84 144.17Z" fill="#406283"/>
<path d="M327.77 132.24C330.86 132.24 333.96 132.31 337.05 132.21C338.61 132.16 339.12 132.66 339.1 134.24C339.02 140.72 339.04 147.21 339.09 153.69C339.1 155.02 338.79 155.69 337.28 155.68C330.7 155.62 324.11 155.63 317.53 155.68C316.11 155.69 315.62 155.21 315.63 153.79C315.68 147.21 315.69 140.62 315.63 134.04C315.62 132.54 316.27 132.19 317.61 132.22C320.98 132.28 324.38 132.24 327.77 132.24Z" fill="#406283"/>
<path d="M353.32 132.24C356.51 132.24 359.71 132.28 362.9 132.22C364.3 132.19 365.11 132.4 365.09 134.13C365.01 140.72 365.02 147.3 365.08 153.89C365.1 155.43 364.41 155.69 363.09 155.68C356.6 155.64 350.11 155.62 343.62 155.69C342.03 155.71 341.58 155.15 341.59 153.61C341.66 147.12 341.67 140.64 341.58 134.15C341.56 132.46 342.27 132.18 343.71 132.22C346.93 132.29 350.13 132.24 353.32 132.24Z" fill="#406283"/>
<path d="M380 155.66C376.8 155.66 373.59 155.59 370.4 155.69C368.75 155.74 368.11 155.27 368.13 153.51C368.22 147.11 368.2 140.71 368.14 134.31C368.12 132.8 368.51 132.19 370.14 132.21C376.64 132.29 383.15 132.29 389.65 132.21C391.33 132.19 391.63 132.93 391.62 134.37C391.57 140.77 391.54 147.17 391.63 153.57C391.66 155.4 390.87 155.72 389.3 155.68C386.2 155.6 383.1 155.66 380 155.66Z" fill="#406283"/>
<path d="M417.94 144.17C417.94 147.26 417.87 150.36 417.97 153.45C418.03 155.09 417.56 155.72 415.81 155.7C409.43 155.61 403.04 155.61 396.65 155.7C394.9 155.72 394.46 155.09 394.48 153.44C394.56 147.06 394.55 140.67 394.48 134.29C394.46 132.77 394.85 132.19 396.48 132.21C402.96 132.29 409.45 132.29 415.94 132.21C417.54 132.19 418.01 132.77 417.97 134.3C417.89 137.58 417.94 140.88 417.94 144.17Z" fill="#406283"/>
<path d="M432.53 132.24C435.72 132.24 438.92 132.3 442.11 132.21C443.61 132.17 444.22 132.55 444.2 134.19C444.11 140.68 444.12 147.16 444.19 153.65C444.21 155.24 443.65 155.7 442.12 155.69C435.63 155.63 429.14 155.61 422.66 155.7C420.97 155.72 420.71 154.99 420.72 153.55C420.77 147.16 420.8 140.78 420.71 134.39C420.69 132.65 421.29 132.16 422.95 132.22C426.14 132.32 429.34 132.24 432.53 132.24Z" fill="#406283"/>
<path d="M459.25 132.24C462.34 132.24 465.44 132.31 468.53 132.21C470.11 132.16 470.58 132.69 470.56 134.26C470.49 140.64 470.49 147.03 470.56 153.41C470.58 155.01 470.21 155.73 468.42 155.7C462.04 155.61 455.65 155.61 449.27 155.7C447.56 155.72 447.05 155.17 447.07 153.48C447.15 147.2 447.19 140.91 447.05 134.63C447 132.52 447.85 132.14 449.67 132.21C452.86 132.32 456.06 132.24 459.25 132.24Z" fill="#406283"/>
<path d="M522.92 143.9C522.92 147.19 522.87 150.49 522.94 153.78C522.97 155.2 522.5 155.69 521.06 155.68C514.47 155.62 507.88 155.64 501.29 155.67C500.11 155.68 499.46 155.43 499.47 154.04C499.52 147.35 499.51 140.66 499.47 133.97C499.46 132.7 499.86 132.21 501.18 132.22C507.87 132.27 514.56 132.28 521.25 132.22C522.91 132.2 522.93 133.14 522.92 134.32C522.9 137.51 522.92 140.71 522.92 143.9Z" fill="#406283"/>
<path d="M37.98 158.46C41.17 158.46 44.37 158.53 47.56 158.43C49.19 158.38 49.84 158.8 49.82 160.57C49.72 166.96 49.73 173.34 49.82 179.73C49.84 181.46 49.27 181.93 47.6 181.91C41.21 181.83 34.82 181.84 28.43 181.9C26.92 181.92 26.31 181.52 26.33 179.9C26.41 173.41 26.41 166.93 26.33 160.44C26.31 158.84 26.88 158.38 28.4 158.43C31.59 158.52 34.79 158.46 37.98 158.46Z" fill="#406283"/>
<path d="M76.26 170.53C76.26 173.62 76.2 176.72 76.29 179.81C76.33 181.32 75.9 181.93 74.28 181.91C67.79 181.84 61.31 181.83 54.82 181.91C53.2 181.93 52.8 181.35 52.81 179.83C52.88 173.45 52.88 167.06 52.81 160.68C52.79 159.04 53.22 158.4 54.97 158.43C61.36 158.52 67.74 158.52 74.13 158.43C75.87 158.41 76.35 159 76.3 160.66C76.18 163.94 76.26 167.24 76.26 170.53Z" fill="#406283"/>
<path d="M102.64 170.17C102.64 173.36 102.59 176.56 102.66 179.75C102.69 181.18 102.41 181.93 100.72 181.91C94.13 181.83 87.54 181.85 80.95 181.9C79.67 181.91 79.18 181.49 79.19 180.18C79.23 173.49 79.24 166.81 79.19 160.12C79.18 158.77 79.75 158.44 80.97 158.45C87.56 158.49 94.15 158.52 100.74 158.43C102.46 158.41 102.68 159.18 102.65 160.6C102.59 163.78 102.64 166.98 102.64 170.17Z" fill="#406283"/>
<path d="M117.19 181.87C113.89 181.87 110.59 181.82 107.29 181.89C105.86 181.92 105.36 181.39 105.37 179.97C105.42 173.37 105.41 166.77 105.38 160.17C105.37 158.88 105.89 158.42 107.15 158.43C113.75 158.46 120.35 158.48 126.95 158.42C128.41 158.41 128.85 158.96 128.84 160.36C128.79 166.86 128.78 173.36 128.85 179.85C128.87 181.43 128.35 181.94 126.79 181.89C123.59 181.81 120.39 181.88 117.19 181.87Z" fill="#406283"/>
<path d="M143.11 158.46C146.4 158.46 149.7 158.51 152.99 158.44C154.4 158.41 154.9 158.87 154.89 160.31C154.83 166.9 154.83 173.48 154.89 180.07C154.9 181.57 154.28 181.91 152.93 181.9C146.44 181.85 139.95 181.84 133.46 181.91C131.89 181.93 131.39 181.43 131.41 179.86C131.48 173.37 131.49 166.89 131.41 160.4C131.39 158.74 132.06 158.4 133.53 158.44C136.72 158.51 139.92 158.46 143.11 158.46Z" fill="#406283"/>
<path d="M169.57 181.88C166.38 181.88 163.18 181.82 159.99 181.91C158.48 181.95 157.88 181.56 157.9 179.92C157.98 173.44 157.98 166.95 157.9 160.47C157.88 158.88 158.45 158.42 159.98 158.43C166.47 158.49 172.95 158.5 179.44 158.42C181.13 158.4 181.39 159.14 181.38 160.57C181.33 166.95 181.31 173.34 181.39 179.72C181.41 181.46 180.8 181.95 179.14 181.9C175.96 181.8 172.76 181.88 169.57 181.88Z" fill="#406283"/>
<path d="M207.74 170.28C207.74 173.47 207.67 176.67 207.77 179.86C207.82 181.43 207.27 181.93 205.71 181.91C199.22 181.84 192.74 181.83 186.25 181.91C184.58 181.93 184.28 181.23 184.3 179.78C184.36 173.4 184.38 167.01 184.29 160.62C184.27 158.91 184.81 158.4 186.5 158.42C192.89 158.5 199.28 158.51 205.66 158.42C207.46 158.39 207.82 159.11 207.78 160.7C207.67 163.89 207.74 167.09 207.74 170.28Z" fill="#406283"/>
<path d="M222.26 181.88C219.16 181.88 216.05 181.8 212.96 181.91C211.23 181.97 210.45 181.58 210.48 179.63C210.59 173.33 210.59 167.03 210.48 160.73C210.44 158.78 211.2 158.41 212.94 158.43C219.14 158.51 225.35 158.52 231.55 158.43C233.31 158.41 234.04 158.8 234 160.74C233.89 167.04 233.88 173.34 234.01 179.64C234.05 181.6 233.31 181.98 231.57 181.92C228.47 181.79 225.36 181.88 222.26 181.88Z" fill="#406283"/>
<path d="M259.96 170.06C259.96 173.25 259.89 176.45 259.99 179.64C260.04 181.26 259.64 181.94 257.85 181.92C251.46 181.82 245.07 181.83 238.69 181.92C236.97 181.94 236.48 181.39 236.5 179.71C236.58 173.33 236.57 166.94 236.51 160.55C236.5 159.06 236.85 158.42 238.49 158.44C244.98 158.52 251.47 158.51 257.95 158.44C259.52 158.42 260.04 158.93 259.99 160.49C259.89 163.67 259.96 166.87 259.96 170.06Z" fill="#406283"/>
<path d="M274.33 181.87C271.24 181.87 268.14 181.8 265.05 181.9C263.49 181.95 262.99 181.45 263.01 179.87C263.09 173.39 263.06 166.91 263.03 160.42C263.02 159.1 263.32 158.41 264.84 158.42C271.42 158.48 278.01 158.47 284.59 158.42C286 158.41 286.51 158.89 286.5 160.31C286.45 166.89 286.45 173.47 286.5 180.05C286.51 181.55 285.85 181.89 284.51 181.87C281.12 181.84 277.72 181.87 274.33 181.87Z" fill="#406283"/>
<path d="M289.41 170.27C289.41 167.08 289.48 163.88 289.38 160.7C289.33 159.08 289.75 158.4 291.53 158.43C297.91 158.52 304.3 158.52 310.69 158.43C312.41 158.41 312.89 158.99 312.87 160.66C312.79 166.94 312.78 173.23 312.87 179.51C312.89 181.27 312.46 181.96 310.55 181.93C304.17 181.82 297.78 181.84 291.39 181.92C289.79 181.94 289.33 181.4 289.37 179.86C289.48 176.66 289.41 173.46 289.41 170.27Z" fill="#406283"/>
<path d="M327.31 158.46C330.5 158.46 333.7 158.5 336.89 158.44C338.29 158.41 339.11 158.63 339.09 160.35C339.01 166.93 339.02 173.51 339.09 180.1C339.11 181.62 338.48 181.91 337.14 181.9C330.66 181.85 324.17 181.84 317.69 181.9C316.14 181.92 315.6 181.42 315.62 179.85C315.69 173.37 315.69 166.89 315.62 160.4C315.6 158.75 316.28 158.39 317.75 158.42C320.93 158.51 324.12 158.46 327.31 158.46Z" fill="#406283"/>
<path d="M341.64 169.99C341.64 166.9 341.71 163.8 341.61 160.71C341.56 159.11 341.94 158.39 343.73 158.42C350.21 158.51 356.7 158.49 363.19 158.43C364.61 158.42 365.1 158.9 365.08 160.32C365.03 166.9 365.04 173.49 365.07 180.07C365.08 181.28 364.75 181.89 363.4 181.88C356.71 181.84 350.03 181.82 343.34 181.89C341.72 181.91 341.6 181.1 341.62 179.85C341.67 176.57 341.64 173.28 341.64 169.99Z" fill="#406283"/>
<path d="M368.16 169.98C368.16 166.78 368.2 163.58 368.14 160.38C368.11 158.99 368.55 158.42 370.02 158.43C376.62 158.49 383.22 158.48 389.83 158.44C391.1 158.43 391.62 158.86 391.61 160.17C391.57 166.77 391.57 173.37 391.62 179.97C391.63 181.38 391.16 181.91 389.71 181.89C383.11 181.84 376.5 181.83 369.9 181.9C368.32 181.92 368.12 181.17 368.14 179.88C368.2 176.58 368.16 173.28 368.16 169.98Z" fill="#406283"/>
<path d="M406.12 181.87C402.83 181.87 399.53 181.83 396.24 181.89C394.98 181.91 394.48 181.53 394.49 180.2C394.54 173.52 394.54 166.84 394.5 160.15C394.49 158.83 395.05 158.43 396.29 158.44C402.87 158.47 409.46 158.48 416.04 158.43C417.43 158.42 417.98 158.85 417.96 160.3C417.91 166.88 417.91 173.47 417.96 180.05C417.97 181.53 417.35 181.92 415.99 181.89C412.71 181.83 409.41 181.87 406.12 181.87Z" fill="#406283"/>
<path d="M432.3 181.88C429.21 181.88 426.11 181.82 423.02 181.91C421.44 181.96 420.68 181.61 420.71 179.8C420.8 173.32 420.78 166.83 420.72 160.35C420.71 158.94 421.16 158.43 422.6 158.44C429.18 158.49 435.77 158.5 442.36 158.44C443.85 158.43 444.2 159.06 444.19 160.41C444.14 166.89 444.13 173.38 444.2 179.86C444.22 181.41 443.77 181.97 442.18 181.91C438.88 181.8 435.59 181.88 432.3 181.88Z" fill="#406283"/>
<path d="M470.53 170.16C470.53 173.45 470.47 176.74 470.56 180.03C470.6 181.47 470.09 181.91 468.67 181.9C462.19 181.84 455.7 181.84 449.22 181.9C447.75 181.91 447.06 181.56 447.08 179.92C447.15 173.44 447.15 166.96 447.08 160.48C447.06 158.91 447.59 158.42 449.15 158.43C455.53 158.5 461.92 158.53 468.3 158.42C470.26 158.39 470.63 159.18 470.57 160.89C470.46 163.97 470.53 167.07 470.53 170.16Z" fill="#406283"/>
<path d="M484.47 181.88C481.38 181.88 478.28 181.82 475.19 181.91C473.7 181.95 473.06 181.59 473.08 179.94C473.16 173.46 473.16 166.97 473.08 160.49C473.06 158.92 473.59 158.43 475.14 158.44C481.63 158.5 488.11 158.52 494.6 158.43C496.27 158.41 496.57 159.11 496.56 160.57C496.5 166.95 496.48 173.34 496.57 179.72C496.59 181.44 496.03 181.97 494.34 181.92C491.06 181.8 487.76 181.88 484.47 181.88Z" fill="#406283"/>
<path d="M510.88 181.88C507.79 181.88 504.69 181.83 501.6 181.9C500.15 181.94 499.44 181.63 499.46 179.95C499.54 173.36 499.52 166.78 499.47 160.19C499.46 158.91 499.89 158.43 501.19 158.44C507.88 158.48 514.57 158.49 521.25 158.44C522.6 158.43 522.94 158.99 522.93 160.23C522.89 166.82 522.86 173.4 522.95 179.99C522.97 181.72 522.17 181.93 520.76 181.9C517.47 181.83 514.17 181.88 510.88 181.88Z" fill="#406283"/>
<path d="M249.12 0.690044C252.32 0.690044 255.51 0.740055 258.71 0.670055C260.09 0.640055 260.65 1.04005 260.64 2.51005C260.58 9.10005 260.58 15.69 260.64 22.28C260.65 23.74 260.11 24.15 258.72 24.13C252.23 24.08 245.74 24.07 239.25 24.13C237.75 24.14 237.14 23.7701 237.16 22.1401C237.24 15.6501 237.24 9.16005 237.16 2.67005C237.14 1.06005 237.72 0.620045 239.24 0.660045C242.53 0.750045 245.82 0.690044 249.12 0.690044Z" fill="#406283"/>
<path d="M49.83 207.16C41.99 207.16 34.15 207.16 26.32 207.15C26.33 200.28 26.41 193.4 26.32 186.53C26.3 184.71 26.8 184.12 28.66 184.15C34.94 184.26 41.22 184.25 47.49 184.15C49.35 184.12 49.84 184.73 49.82 186.53C49.74 193.41 49.81 200.29 49.83 207.16Z" fill="#406283"/>
<path d="M76.3 207.15C68.46 207.16 60.62 207.16 52.79 207.17C52.81 200.47 52.9 193.77 52.79 187.07C52.76 184.95 53.16 184.07 55.54 184.14C61.54 184.32 67.55 184.32 73.55 184.14C75.91 184.07 76.35 184.91 76.31 187.05C76.19 193.74 76.29 200.44 76.3 207.15Z" fill="#406283"/>
<path d="M102.69 207.15C94.85 207.15 87.02 207.15 79.18 207.15C79.19 200.28 79.27 193.4 79.19 186.53C79.17 184.73 79.66 184.12 81.52 184.15C87.8 184.25 94.08 184.26 100.36 184.15C102.22 184.12 102.72 184.71 102.7 186.53C102.6 193.4 102.67 200.28 102.69 207.15Z" fill="#406283"/>
<path d="M154.91 207.16C147.07 207.16 139.24 207.16 131.4 207.16C131.41 200.28 131.49 193.41 131.4 186.53C131.38 184.72 131.86 184.12 133.73 184.15C140.01 184.26 146.29 184.25 152.57 184.15C154.42 184.12 154.93 184.72 154.91 186.53C154.83 193.4 154.9 200.28 154.91 207.16Z" fill="#3F6283"/>
<path d="M181.41 207.14C173.57 207.15 165.73 207.15 157.89 207.16C157.91 200.46 158 193.76 157.9 187.07C157.87 184.95 158.27 184.07 160.65 184.14C166.65 184.32 172.65 184.32 178.65 184.14C181.01 184.07 181.45 184.91 181.42 187.05C181.3 193.74 181.39 200.44 181.41 207.14Z" fill="#406283"/>
<path d="M207.78 207.15C199.94 207.15 192.11 207.16 184.27 207.16C184.29 200.46 184.38 193.76 184.27 187.06C184.24 184.94 184.64 184.07 187.02 184.14C193.02 184.32 199.03 184.32 205.03 184.14C207.4 184.07 207.83 184.91 207.79 187.05C207.67 193.74 207.76 200.45 207.78 207.15Z" fill="#406283"/>
<path d="M260.01 207.15C252.17 207.15 244.34 207.16 236.5 207.16C236.52 200.29 236.59 193.41 236.51 186.54C236.49 184.74 236.98 184.12 238.84 184.15C245.12 184.25 251.39 184.25 257.67 184.15C259.53 184.12 260.03 184.71 260.01 186.53C259.92 193.4 259.99 200.28 260.01 207.15Z" fill="#406283"/>
<path d="M312.88 207.14C305.04 207.15 297.2 207.15 289.36 207.16C289.38 200.46 289.47 193.76 289.37 187.07C289.34 184.95 289.74 184.07 292.12 184.14C298.12 184.32 304.12 184.32 310.12 184.14C312.48 184.07 312.92 184.91 312.88 187.05C312.77 193.74 312.87 200.44 312.88 207.14Z" fill="#406283"/>
<path d="M365.11 207.14C357.27 207.15 349.43 207.15 341.59 207.16C341.61 200.46 341.7 193.76 341.59 187.06C341.56 184.94 341.96 184.06 344.34 184.13C350.34 184.31 356.34 184.31 362.34 184.13C364.7 184.06 365.14 184.9 365.11 187.04C365 193.74 365.09 200.44 365.11 207.14Z" fill="#406283"/>
<path d="M444.22 207.16C436.38 207.15 428.54 207.15 420.7 207.14C420.72 200.44 420.81 193.74 420.7 187.04C420.66 184.9 421.1 184.06 423.47 184.13C429.47 184.31 435.47 184.31 441.47 184.13C443.86 184.06 444.26 184.95 444.22 187.06C444.11 193.77 444.2 200.47 444.22 207.16Z" fill="#406283"/>
<path d="M496.58 207.14C488.74 207.15 480.9 207.15 473.06 207.16C473.08 200.46 473.17 193.76 473.06 187.06C473.03 184.94 473.43 184.06 475.81 184.13C481.81 184.31 487.81 184.31 493.81 184.13C496.17 184.06 496.61 184.9 496.57 187.04C496.47 193.74 496.57 200.44 496.58 207.14Z" fill="#406283"/>
<path d="M522.96 207.15C515.12 207.15 507.28 207.16 499.45 207.16C499.46 200.29 499.54 193.41 499.46 186.54C499.44 184.74 499.93 184.12 501.79 184.16C508.07 184.26 514.35 184.26 520.62 184.16C522.47 184.13 522.98 184.73 522.96 186.54C522.87 193.4 522.95 200.28 522.96 207.15Z" fill="#406283"/>
<path d="M286.53 207.13C279.64 207.15 272.75 207.12 265.86 207.22C264.01 207.25 263.44 206.59 263.46 204.79C263.54 198.9 263.57 193.01 263.46 187.12C263.42 185.04 264.05 184.36 266.17 184.39C272.86 184.49 279.55 184.39 286.24 184.36C286.33 191.95 286.43 199.54 286.53 207.13Z" fill="#406283"/>
<path d="M315.87 184.36C322.56 184.38 329.25 184.48 335.94 184.38C338.05 184.35 338.69 185.04 338.65 187.11C338.53 193 338.56 198.89 338.64 204.78C338.67 206.58 338.1 207.25 336.25 207.22C329.36 207.12 322.47 207.15 315.58 207.13C315.68 199.54 315.77 191.95 315.87 184.36Z" fill="#406283"/>
<path d="M418 207.13C411.11 207.15 404.22 207.12 397.33 207.22C395.48 207.25 394.91 206.58 394.94 204.78C395.02 198.89 395.05 193 394.93 187.11C394.89 185.03 395.53 184.35 397.64 184.38C404.33 184.48 411.02 184.38 417.71 184.36C417.81 191.95 417.9 199.54 418 207.13Z" fill="#406283"/>
<path d="M447.34 184.36C454.03 184.38 460.72 184.48 467.41 184.39C469.53 184.36 470.16 185.05 470.11 187.12C469.99 193.01 470.02 198.9 470.11 204.79C470.14 206.6 469.55 207.25 467.71 207.22C460.82 207.12 453.93 207.15 447.04 207.13C447.33 199.54 446.75 191.94 447.34 184.36Z" fill="#406283"/>
<path d="M0.57001 195.68C0.57001 192.69 0.64001 189.69 0.55001 186.7C0.50001 185.07 0.99001 184.38 2.74001 184.4C8.92001 184.48 15.11 184.47 21.3 184.41C22.87 184.39 23.38 184.98 23.37 186.51C23.32 192.69 23.3 198.88 23.38 205.06C23.4 206.85 22.63 207.23 21.04 207.22C14.96 207.16 8.87001 207.15 2.78001 207.22C1.08001 207.24 0.490012 206.62 0.540012 204.95C0.640012 201.86 0.57001 198.77 0.57001 195.68Z" fill="#406283"/>
<path d="M128.43 196.07C128.43 198.96 128.36 201.86 128.46 204.75C128.52 206.5 128.03 207.26 126.12 207.23C120.04 207.13 113.95 207.15 107.86 207.22C106.17 207.24 105.6 206.63 105.62 204.96C105.69 198.88 105.71 192.79 105.61 186.71C105.58 184.78 106.38 184.38 108.1 184.4C114.09 184.47 120.07 184.49 126.06 184.39C127.9 184.36 128.52 184.98 128.45 186.8C128.34 189.89 128.43 192.98 128.43 196.07Z" fill="#406283"/>
<path d="M221.99 207.19C219 207.19 216 207.13 213.01 207.22C211.37 207.27 210.69 206.76 210.71 205.02C210.79 198.84 210.78 192.65 210.72 186.47C210.7 184.89 211.3 184.39 212.83 184.41C219.02 184.47 225.2 184.48 231.39 184.4C233.18 184.38 233.56 185.15 233.55 186.74C233.49 192.82 233.48 198.91 233.56 204.99C233.58 206.7 232.93 207.26 231.27 207.22C228.17 207.13 225.08 207.19 221.99 207.19Z" fill="#406283"/>
<path d="M379.81 207.19C376.82 207.19 373.82 207.13 370.83 207.21C369.17 207.26 368.53 206.69 368.55 204.98C368.62 198.9 368.62 192.81 368.56 186.73C368.54 185.14 368.94 184.37 370.72 184.39C376.9 184.47 383.09 184.45 389.28 184.4C390.81 184.39 391.4 184.9 391.38 186.47C391.32 192.65 391.31 198.84 391.39 205.02C391.41 206.77 390.72 207.26 389.09 207.21C386 207.13 382.91 207.19 379.81 207.19Z" fill="#406283"/>
<path d="M537.58 184.43C540.47 184.43 543.37 184.5 546.26 184.4C548 184.34 548.77 184.81 548.74 186.73C548.64 192.81 548.66 198.9 548.74 204.98C548.76 206.68 548.14 207.24 546.48 207.22C540.4 207.15 534.31 207.13 528.22 207.23C526.29 207.26 525.89 206.45 525.91 204.74C525.98 198.76 526 192.77 525.91 186.79C525.88 184.95 526.49 184.33 528.32 184.4C531.39 184.51 534.49 184.43 537.58 184.43Z" fill="#406283"/>
</svg>
