<svg width="337" height="500" viewBox="0 0 337 500" fill="none" xmlns="http://www.w3.org/2000/svg">
<path d="M66.94 218.55C58.73 210.77 50.01 209.64 40.85 211.8C32.6 213.74 27.47 220.37 26.89 229.24C26.54 234.55 26.88 239.9 26.65 245.22C26.5 248.62 28.01 249.45 31.11 249.41C41.44 249.3 51.76 249.36 62.09 249.49C63.95 249.51 66.59 248.35 66.97 251.98C67.3 255.09 65.88 256.43 63.18 257.39C52.37 261.25 41.63 265.31 30.82 269.17C28.22 270.1 26.62 271.15 26.59 274.35C26.56 277.58 27.78 279.11 30.71 280.15C41.53 283.99 52.18 288.33 63.09 291.85C68.8 293.69 66.83 297.8 66.78 301.19C66.73 305.02 63.31 303.42 61.37 303.47C51.38 303.68 41.38 303.64 31.39 303.68C29.01 303.69 26.73 303.46 26.64 307.08C26.55 310.96 28.95 310.79 31.56 310.81C41.22 310.89 50.88 310.92 60.54 311.19C62.63 311.25 66.15 309.79 66.57 312.74C67.09 316.39 68.74 320.86 64.93 323.92C59.48 328.3 53.76 332.34 48.31 336.72C46.13 338.47 44.82 338.17 42.95 336.24C38 331.13 32.82 326.25 27.35 320.91C26.19 325.09 26.29 328.4 29.59 331.38C35.75 336.94 41.73 342.71 47.37 349C41.66 350.69 36.41 350.13 31.22 350.27C28.74 350.33 26.63 350.23 26.64 353.79C26.65 357.32 28.71 357.33 31.22 357.33C41.55 357.31 51.87 357.3 62.2 357.42C63.81 357.44 66.4 356.4 66.73 359.05C67.04 361.53 68.04 364.49 65.37 366.47C61.76 369.15 58.03 371.66 54.43 374.35C52.54 375.76 52.07 374.65 51.24 373.13C47.4 366.08 42.92 363.76 36.38 365.23C30.52 366.54 26.92 371.67 26.73 379.26C26.6 384.25 26.85 389.26 26.64 394.25C26.5 397.6 27.9 398.51 31.05 398.47C41.38 398.35 51.71 398.64 62.03 398.39C66.09 398.29 67.45 399.72 66.96 403.55C66.65 405.96 67.42 408.46 66.36 411.1C54.64 404.23 41.91 408.03 29.65 407.17C27.11 406.99 26.73 408.63 26.68 410.71C26.62 413.19 27.5 414.36 30.14 414.34C37.63 414.29 45.14 414.24 52.62 414.49C57.55 414.66 62.43 415.56 64.62 420.91C67.78 428.62 63.15 435.92 54.55 436.44C46.91 436.9 39.23 436.83 31.57 436.94C28.97 436.98 26.58 436.79 26.64 440.67C26.7 444.67 29.32 444.16 31.78 444.17C38.28 444.21 44.77 444.22 51.27 444.24C56.67 444.26 61.72 442.96 66.92 439.34C66.92 451.95 66.9 463.56 66.94 475.16C66.95 477.34 65.91 478.13 63.89 478.08C62.56 478.05 61.21 477.96 59.9 478.14C55.99 478.68 54.41 477.16 54.85 473.16C55.13 470.69 54.95 468.17 54.87 465.67C54.6 457.14 48.95 451.37 40.82 451.26C32.72 451.15 27.26 456.32 26.81 464.94C26.53 470.42 26.83 475.94 26.65 481.43C26.54 484.59 27.95 485.38 30.84 485.36C41 485.3 51.17 485.7 61.32 485.38C66.12 485.23 67.57 486.96 66.96 491.36C66.8 492.5 66.85 493.7 66.94 494.85C67.14 497.35 66.2 498.44 63.54 498.43C43.89 498.36 24.23 498.35 4.58001 498.44C1.70001 498.45 0.669998 497.32 0.929998 494.59C1.02 493.6 0.940007 492.59 0.940007 491.59C0.940007 384.3 0.920002 277.02 0.950002 169.73C0.970002 92.0101 50.51 26.81 125.24 6.03005C210.47 -17.67 302.19 32.43 328.55 117.11C357.97 211.6 301.74 309.47 205.3 331.53C193.75 334.17 182.04 335.57 170.15 335.51C150 335.4 129.84 335.32 109.69 335.49C105.66 335.52 104.65 334.22 104.68 330.37C104.85 311.71 104.89 293.05 104.66 274.4C104.61 270.03 106.18 269.22 110.13 269.25C130.12 269.43 150.1 269.33 170.09 269.33C215.65 269.33 256.75 236.91 267.32 192.65C280.66 136.8 247.63 82.6901 191.81 68.9601C137.69 55.6501 80.96 91.3201 69.37 145.89C68.09 151.94 67.24 158.04 67.06 164.19C66.97 167.32 66 168.85 62.93 169.9C52.23 173.58 41.67 177.64 31.04 181.5C28.36 182.47 26.52 183.58 26.55 187.06C26.58 190.43 28.13 191.65 30.93 192.65C41.12 196.26 51.16 200.31 61.44 203.65C65.93 205.11 67.66 207.35 66.97 211.88C66.72 213.66 66.94 215.49 66.94 218.55Z" fill="#ECECEC"/>
<path d="M169.75 464.51C169.89 457.34 170.29 450.21 172.94 443.44C175.91 435.86 181.14 431.11 189.55 430.4C198.95 429.61 206.59 432.75 210.29 441.68C216.66 457.06 216.61 472.85 210.46 488.29C207.59 495.51 201.55 499.06 193.59 499.4C185.14 499.76 178.71 496.72 174.61 489.19C170.41 481.47 169.89 473.03 169.75 464.51Z" fill="#F0F2F1"/>
<path d="M299.95 431.38C304.44 431.38 308.94 431.47 313.42 431.34C315.9 431.27 317.01 432.03 317.05 434.7C317.1 437.55 316.02 438.47 313.25 438.41C306.77 438.27 300.27 438.48 293.79 438.32C291.01 438.25 289.94 439.27 289.81 442C289.6 446.32 289.15 450.62 288.73 454.93C288.52 457.1 289.22 457.78 291.52 457.63C296.64 457.3 301.78 456.84 306.89 458.18C314.69 460.24 320.01 464.86 321.31 472.93C322.72 481.68 320.95 489.84 313.02 494.95C303 501.41 292.14 500.46 281.35 496.93C277.77 495.76 278.54 492.34 279.27 490.15C280.18 487.43 282.29 489.93 283.68 490.38C290.3 492.52 297 493.5 303.76 491.51C310.73 489.46 313.96 483.89 313.19 475.97C312.54 469.26 308.2 465.02 301.04 464.34C296.73 463.93 292.4 464.01 288.11 464.72C282.56 465.64 280.55 464.02 280.93 458.61C281.49 450.65 282.29 442.7 282.81 434.73C282.98 432.19 283.92 431.24 286.46 431.31C290.96 431.48 295.46 431.38 299.95 431.38Z" fill="#F0F2F1"/>
<path d="M234.86 491.35C244.3 491.35 253.73 491.36 263.17 491.34C265.69 491.34 268.13 490.89 268.1 494.91C268.07 499.02 265.45 498.34 263.05 498.34C251.57 498.36 240.09 498.39 228.61 498.3C226.97 498.29 224.53 499.36 223.88 496.92C223.26 494.57 223.11 492.04 225.23 489.95C230.46 484.82 235.6 479.61 240.73 474.39C244.81 470.24 249.06 466.23 252.42 461.43C257.78 453.76 258.41 445.39 254.07 440.65C249.69 435.86 240.7 435.86 232.77 440.63C230.67 441.9 228.76 444.55 226.28 440.78C224.88 438.65 224.77 437.5 226.98 435.98C234.7 430.7 243.1 428.87 252.12 431.2C262.97 434 267.73 443.76 264.17 455.18C262.39 460.88 258.88 465.52 254.86 469.79C251.56 473.3 248.12 476.7 244.7 480.1C241.29 483.49 237.83 486.82 234.39 490.18C234.56 490.58 234.71 490.96 234.86 491.35Z" fill="#F0F2F1"/>
<path d="M126.74 491.35C136.71 491.35 146.45 491.39 156.18 491.32C158.62 491.3 160.42 491.54 160.32 494.7C160.25 497.08 159.72 498.39 156.96 498.37C144.31 498.28 131.66 498.34 119 498.31C117.73 498.31 116.1 498.57 115.92 496.64C115.69 494.17 115.46 491.78 117.61 489.71C122.89 484.63 128.06 479.44 133.14 474.17C136.95 470.22 140.71 466.2 144.18 461.96C147.41 458.01 149.24 453.39 149.05 448.13C148.82 441.62 144.91 437.67 138.47 437.24C132.89 436.87 127.85 438.26 123.51 441.67C120.98 443.66 119.9 442.33 118.35 440.5C116.43 438.22 117.54 437.11 119.44 435.81C127.01 430.65 135.3 428.94 144.15 431.13C153.76 433.5 158.64 441.25 157.3 451.08C156.36 458.01 152.8 463.6 148.2 468.51C142.4 474.7 136.25 480.57 130.3 486.63C129.09 487.88 127.39 488.8 126.74 491.35Z" fill="#F0F2F1"/>
<path d="M48.3 242.27C45.47 242.27 42.64 242.26 39.82 242.27C32.95 242.31 32.95 242.31 32.98 234.71C33.02 222.9 38.61 217.53 50.25 218.13C59.04 218.58 64.04 223.44 64.64 232.19C64.76 234.01 64.57 235.86 64.71 237.68C64.94 240.6 63.87 241.99 60.77 241.89C56.62 241.75 52.46 241.85 48.3 241.85C48.3 241.99 48.3 242.13 48.3 242.27Z" fill="#ECECEC"/>
<path d="M39.84 478.23C39.93 478.23 38.91 478.11 37.94 478.25C33.98 478.83 32.5 477.16 32.93 473.24C33.18 470.94 32.87 468.58 33.04 466.27C33.4 461.42 36.44 458.42 40.92 458.31C45.36 458.2 47.99 460.64 48.67 465.64C48.87 467.11 48.83 468.62 48.82 470.12C48.72 479.33 49.77 478.03 39.84 478.23Z" fill="#EBEBEC"/>
<path d="M32.96 383.3C33.1 381.05 32.67 378.56 33.73 376.17C35.14 373 37.55 371.76 40.9 372.15C44.05 372.51 45.63 374.66 45.91 377.46C46.27 381.07 46.07 384.73 46.13 388.37C46.17 390.53 45.01 391.3 43.02 391.21C42.36 391.18 41.7 391.24 41.04 391.24C31.57 391.25 33.14 392.06 32.96 383.3Z" fill="#EBEBEC"/>
<path d="M66.94 331.53C66.94 337.48 66.87 342.14 66.97 346.78C67.02 349.11 66.12 350.18 63.78 350.11C61.95 350.06 60.1 350.26 58.29 350.1C54.69 349.78 52.6 346.91 51.33 344.28C50.14 341.82 53.64 341.18 55.18 339.96C58.65 337.22 62.37 334.77 66.94 331.53Z" fill="#EAEAEB"/>
<path d="M66.95 187.03C66.95 188.69 67.23 190.42 66.88 192.01C66.46 193.91 68.72 197.13 65.06 197.51C61.03 197.93 58.04 194.98 57.99 191.28C57.95 188.12 58 184.95 57.99 181.79C57.99 180.2 58.34 179.08 60.05 178.26C66.11 175.35 66.95 175.8 66.96 182.53C66.95 184.03 66.95 185.53 66.95 187.03Z" fill="#EAEBEB"/>
<path d="M66.94 274.8C66.94 276.3 67.16 277.84 66.89 279.29C66.51 281.3 68.38 284.39 65.33 285.15C61.82 286.02 58.02 282.27 57.98 278.57C57.94 275.57 58.08 272.57 57.95 269.58C57.85 267.4 58.76 266.37 60.76 265.57C66.68 263.2 66.94 263.31 66.94 269.81C66.95 271.46 66.94 273.13 66.94 274.8Z" fill="#EAEBEB"/>
<path d="M66.94 374.37C66.94 379.72 66.84 383.7 66.98 387.66C67.07 390.3 65.89 391.22 63.42 391.13C61.43 391.06 59.43 391.26 57.45 391.12C55.8 391.01 53.36 392.03 52.94 389.39C52.59 387.21 51.83 384.57 54.14 382.93C58.01 380.18 62.03 377.64 66.94 374.37Z" fill="#EAEAEB"/>
<path d="M35.04 187.06C40.47 185.15 44.57 183.83 48.58 182.27C50.81 181.4 51.7 181.97 51.66 184.28C51.65 184.94 51.67 185.61 51.68 186.27C51.77 193.02 51.76 193.03 45.31 190.76C42.36 189.74 39.43 188.65 35.04 187.06Z" fill="#E6E8EA"/>
<path d="M35.64 274.87C40.61 272.15 45.27 271 49.77 269.54C50.94 269.16 51.58 270.19 51.57 271.3C51.56 274.07 52.8 277.48 50.95 279.41C49.58 280.84 46.73 278.74 44.59 278.05C41.92 277.2 39.32 276.19 35.64 274.87Z" fill="#E6E8EA"/>
<path d="M12.91 270.29C13.09 269.11 12.57 267.87 13.61 267.33C14.65 266.78 15.46 267.73 16.22 268.34C18.04 269.79 19.86 271.25 21.64 272.75C22.78 273.71 23.24 275.1 22.55 276.34C21.51 278.21 20.13 276.73 19.19 276.13C16.72 274.54 12.75 274.39 12.91 270.29Z" fill="#5088B5"/>
<path d="M206.32 464.8C206.1 471.11 206.11 477.45 203.93 483.5C201.7 489.7 198.12 492.44 192.24 492.45C186.3 492.47 182.4 489.9 180.53 483.61C176.85 471.22 176.88 458.66 180.45 446.26C182.31 439.82 186.46 437.15 192.59 437.27C198.3 437.38 201.85 440.27 204.05 446.58C206.11 452.49 206.1 458.66 206.32 464.8Z" fill="#5088B5"/>
</svg>
