<?xml version="1.0" encoding="utf-8"?>
<!-- Generator: Adobe Illustrator 26.5.3, SVG Export Plug-In . SVG Version: 6.00 Build 0)  -->
<svg version="1.1" id="Vrstva_1" xmlns="http://www.w3.org/2000/svg" xmlns:xlink="http://www.w3.org/1999/xlink" x="0px" y="0px"
	 viewBox="0 0 595.28 841.89" style="enable-background:new 0 0 595.28 841.89;" xml:space="preserve">
<style type="text/css">
	.st0{fill:#406283;}
	.st1{fill:#3F6283;}
</style>
<path class="st0" d="M298.24,341.11c-3.19,0-6.39-0.07-9.58,0.03c-1.6,0.05-2.31-0.32-2.29-2.12c0.1-6.48,0.07-12.97,0.01-19.46
	c-0.01-1.41,0.44-1.91,1.88-1.9c6.59,0.06,13.18,0.04,19.76,0.01c1.2-0.01,1.83,0.29,1.82,1.66c-0.04,6.69-0.06,13.37,0.01,20.06
	c0.02,1.61-0.79,1.75-2.04,1.73C304.63,341.08,301.43,341.11,298.24,341.11z"/>
<path class="st0" d="M312.41,329.13c0-3.19,0.06-6.39-0.02-9.58c-0.04-1.44,0.49-1.89,1.9-1.88c6.59,0.05,13.18,0.06,19.77,0
	c1.54-0.02,1.8,0.65,1.79,1.98c-0.04,6.49-0.06,12.98,0.01,19.47c0.02,1.57-0.49,2.05-2.06,2.03c-6.49-0.07-12.98-0.08-19.47,0
	c-1.68,0.02-1.99-0.67-1.95-2.13C312.47,335.72,312.41,332.43,312.41,329.13z"/>
<path class="st0" d="M140.33,319.07c3.2,0,6.4,0.06,9.6-0.03c1.42-0.04,1.92,0.42,1.91,1.87c-0.06,6.5-0.06,13,0,19.49
	c0.01,1.51-0.42,2.13-2.03,2.11c-6.5-0.07-13-0.07-19.5,0c-1.69,0.02-1.96-0.79-1.95-2.2c0.04-6.4,0.05-12.8-0.01-19.19
	c-0.01-1.56,0.52-2.12,2.08-2.08C133.73,319.13,137.03,319.07,140.33,319.07z"/>
<path class="st0" d="M154.45,330.81c0-3.19,0.04-6.39-0.02-9.58c-0.03-1.4,0.17-2.22,1.9-2.19c6.59,0.08,13.17,0.07,19.76,0.01
	c1.54-0.01,1.81,0.68,1.8,2c-0.04,6.49-0.06,12.97,0.01,19.46c0.02,1.59-0.54,2.04-2.07,2.02c-6.49-0.07-12.98-0.08-19.46,0.01
	c-1.68,0.02-1.99-0.68-1.95-2.14C154.5,337.2,154.45,334,154.45,330.81z"/>
<path class="st0" d="M297.94,367.49c-3.09,0-6.19-0.07-9.28,0.03c-1.61,0.05-2.31-0.34-2.29-2.13c0.09-6.38,0.09-12.77,0-19.15
	c-0.02-1.7,0.52-2.22,2.21-2.2c6.39,0.08,12.77,0.07,19.16,0.01c1.48-0.01,2.14,0.34,2.12,1.99c-0.08,6.48-0.08,12.97,0,19.45
	c0.02,1.58-0.5,2.08-2.05,2.03C304.52,367.42,301.23,367.49,297.94,367.49z"/>
<path class="st0" d="M114.02,368.69c-3.2,0-6.4-0.08-9.59,0.03c-1.64,0.06-2.27-0.38-2.25-2.14c0.1-6.39,0.1-12.78,0-19.17
	c-0.03-1.74,0.56-2.19,2.22-2.16c6.29,0.08,12.59,0.09,18.88,0c1.76-0.03,2.45,0.35,2.41,2.29c-0.12,6.29-0.12,12.58,0,18.87
	c0.03,1.88-0.55,2.41-2.38,2.33C120.21,368.59,117.11,368.69,114.02,368.69z"/>
<path class="st0" d="M151.82,357.18c0,3.2-0.05,6.4,0.02,9.6c0.03,1.38-0.38,1.95-1.86,1.94c-6.5-0.06-13.01-0.06-19.51,0
	c-1.52,0.01-2.13-0.42-2.11-2.02c0.07-6.5,0.06-13,0.01-19.5c-0.01-1.39,0.41-1.95,1.88-1.94c6.6,0.06,13.21,0.06,19.81,0
	c1.57-0.01,1.8,0.74,1.78,2.03C151.79,350.58,151.82,353.88,151.82,357.18z"/>
<path class="st0" d="M177.87,357.06c0,3.2-0.06,6.39,0.03,9.59c0.04,1.53-0.4,2.09-2.01,2.07c-6.49-0.08-12.99-0.08-19.48,0
	c-1.64,0.02-2-0.6-1.99-2.1c0.06-6.49,0.06-12.98,0-19.48c-0.01-1.4,0.4-1.92,1.85-1.9c6.59,0.06,13.19,0.06,19.78,0
	c1.48-0.01,1.87,0.55,1.84,1.93C177.82,350.47,177.87,353.77,177.87,357.06z"/>
<path class="st0" d="M113.86,371.28c3.29,0,6.59,0.05,9.88-0.02c1.39-0.03,1.94,0.4,1.93,1.86c-0.06,6.58-0.06,13.17,0,19.75
	c0.01,1.48-0.56,1.85-1.94,1.84c-6.49-0.05-12.97-0.06-19.46,0.01c-1.51,0.01-2.1-0.39-2.08-2c0.08-6.48,0.08-12.97,0-19.45
	c-0.02-1.61,0.56-2.06,2.09-2.01C107.47,371.34,110.66,371.28,113.86,371.28z"/>
<path class="st0" d="M140.42,371.28c3.1,0,6.2,0.06,9.3-0.02c1.46-0.04,2.16,0.28,2.13,1.96c-0.08,6.5-0.07,12.99-0.01,19.49
	c0.02,1.61-0.6,2.04-2.12,2.02c-6.4-0.06-12.8-0.08-19.2,0.01c-1.77,0.02-2.19-0.67-2.17-2.29c0.07-6.3,0.09-12.6-0.01-18.89
	c-0.03-1.94,0.75-2.35,2.48-2.3C134.02,371.35,137.22,371.28,140.42,371.28z"/>
<path class="st0" d="M166.21,371.28c3.09,0,6.19,0.09,9.28-0.03c1.76-0.07,2.46,0.38,2.43,2.3c-0.11,6.28-0.11,12.57,0,18.86
	c0.03,1.86-0.57,2.36-2.37,2.34c-6.29-0.1-12.58-0.08-18.86-0.01c-1.61,0.02-2.29-0.34-2.27-2.13c0.1-6.38,0.09-12.77,0-19.16
	c-0.02-1.71,0.52-2.26,2.21-2.2C159.82,371.36,163.01,371.28,166.21,371.28z"/>
<path class="st0" d="M429.15,394.7c-3.2,0-6.41-0.06-9.6,0.03c-1.58,0.04-2.07-0.54-2.05-2.08c0.06-6.5,0.06-13,0-19.5
	c-0.01-1.44,0.46-1.89,1.89-1.88c6.5,0.06,13.01,0.06,19.51,0c1.56-0.02,2.09,0.49,2.08,2.06c-0.07,6.5-0.06,13-0.01,19.5
	c0.01,1.43-0.49,1.93-1.91,1.9C435.75,394.65,432.45,394.7,429.15,394.7z"/>
<path class="st0" d="M99.26,409.27c0,3.19-0.06,6.39,0.03,9.58c0.04,1.52-0.41,2.1-2.02,2.08c-6.49-0.08-12.98-0.08-19.47,0
	c-1.63,0.02-2.01-0.57-1.99-2.08c0.07-6.49,0.06-12.98,0.01-19.47c-0.01-1.39,0.39-1.94,1.85-1.93c6.59,0.06,13.18,0.06,19.77,0
	c1.48-0.01,1.87,0.55,1.84,1.93C99.21,402.68,99.26,405.98,99.26,409.27z"/>
<path class="st0" d="M114.22,397.49c3.1,0,6.2,0.09,9.29-0.04c1.74-0.07,2.19,0.55,2.17,2.22c-0.09,6.39-0.07,12.78-0.01,19.17
	c0.01,1.5-0.35,2.12-1.99,2.1c-6.49-0.08-12.99-0.08-19.48,0c-1.62,0.02-2.02-0.55-2.01-2.07c0.07-6.39,0.11-12.78-0.02-19.17
	c-0.04-2.01,0.77-2.29,2.46-2.23C107.82,397.56,111.02,397.49,114.22,397.49z"/>
<path class="st0" d="M140.34,397.49c3.1,0,6.2,0.04,9.3-0.02c1.41-0.03,2.23,0.19,2.21,1.92c-0.08,6.6-0.05,13.2-0.01,19.8
	c0.01,1.29-0.46,1.75-1.75,1.74c-6.6-0.04-13.21-0.05-19.81,0c-1.43,0.01-1.92-0.49-1.91-1.91c0.05-6.5,0.06-13-0.01-19.5
	c-0.02-1.57,0.52-2.1,2.08-2.05C133.73,397.55,137.03,397.49,140.34,397.49z"/>
<path class="st0" d="M166.15,420.9c-3.2,0-6.39-0.05-9.59,0.02c-1.43,0.03-2.17-0.22-2.15-1.93c0.09-6.59,0.06-13.18,0.01-19.77
	c-0.01-1.26,0.36-1.77,1.69-1.76c6.69,0.05,13.39,0.05,20.08,0c1.34-0.01,1.7,0.51,1.69,1.76c-0.04,6.59-0.07,13.18,0.02,19.77
	c0.02,1.71-0.73,1.96-2.16,1.92C172.55,420.86,169.35,420.9,166.15,420.9z"/>
<path class="st0" d="M440.94,409.53c0,3.09-0.05,6.19,0.02,9.28c0.04,1.47-0.32,2.15-1.98,2.13c-6.59-0.08-13.17-0.06-19.76-0.01
	c-1.28,0.01-1.75-0.42-1.74-1.73c0.05-6.68,0.05-13.37,0-20.05c-0.01-1.36,0.61-1.68,1.81-1.67c6.59,0.03,13.17,0.05,19.76-0.01
	c1.42-0.01,1.92,0.47,1.89,1.89C440.89,402.75,440.94,406.14,440.94,409.53z"/>
<path class="st0" d="M467.31,409.55c0,2.99-0.09,5.99,0.03,8.98c0.07,1.77-0.38,2.45-2.3,2.41c-6.39-0.12-12.78-0.09-19.17-0.01
	c-1.6,0.02-2.03-0.51-2.01-2.06c0.07-6.39,0.07-12.78,0-19.16c-0.02-1.62,0.37-2.29,2.14-2.27c6.39,0.09,12.78,0.09,19.17,0
	c1.73-0.02,2.23,0.55,2.18,2.22C467.23,402.96,467.31,406.26,467.31,409.55z"/>
<path class="st0" d="M75.84,435.21c0-3.19,0.09-6.39-0.03-9.57c-0.07-1.73,0.54-2.21,2.22-2.18c6.38,0.08,12.77,0.07,19.16,0.01
	c1.5-0.01,2.13,0.37,2.11,2c-0.07,6.48-0.07,12.97,0,19.45c0.02,1.59-0.54,2.04-2.07,2.03c-6.39-0.07-12.77-0.1-19.16,0.02
	c-1.98,0.04-2.32-0.76-2.26-2.47C75.91,441.4,75.84,438.3,75.84,435.21z"/>
<path class="st0" d="M113.97,423.49c3.19,0,6.39,0.06,9.58-0.02c1.48-0.04,2.15,0.32,2.13,1.98c-0.08,6.48-0.08,12.97,0,19.46
	c0.02,1.57-0.5,2.06-2.05,2.04c-6.49-0.07-12.98-0.08-19.46,0c-1.66,0.02-1.98-0.64-1.97-2.12c0.06-6.39,0.08-12.77-0.01-19.16
	c-0.02-1.7,0.49-2.27,2.2-2.21C107.57,423.57,110.77,423.49,113.97,423.49z"/>
<path class="st0" d="M140.05,446.91c-3.2,0-6.4-0.06-9.6,0.02c-1.54,0.04-2.11-0.47-2.1-2.05c0.06-6.5,0.05-13,0.01-19.49
	c-0.01-1.42,0.5-1.93,1.92-1.92c6.6,0.05,13.2,0.04,19.8,0c1.28-0.01,1.76,0.41,1.75,1.72c-0.05,6.6-0.06,13.2,0.01,19.79
	c0.02,1.7-0.76,1.98-2.19,1.95C146.45,446.86,143.25,446.91,140.05,446.91z"/>
<path class="st0" d="M166.07,446.91c-3.19,0-6.39-0.06-9.58,0.03c-1.53,0.04-2.09-0.42-2.07-2.02c0.08-6.49,0.05-12.97,0.01-19.46
	c-0.01-1.31,0.24-2.01,1.79-2c6.59,0.06,13.18,0.06,19.76,0c1.4-0.01,1.93,0.43,1.91,1.88c-0.06,6.59-0.06,13.17,0,19.76
	c0.01,1.51-0.59,1.85-1.95,1.83C172.65,446.86,169.36,446.91,166.07,446.91z"/>
<path class="st0" d="M204.36,435.05c0,3.19-0.06,6.38,0.03,9.57c0.04,1.56-0.26,2.34-2.09,2.32c-6.48-0.1-12.97-0.07-19.45-0.02
	c-1.39,0.01-1.94-0.42-1.93-1.88c0.06-6.58,0.06-13.16,0-19.74c-0.01-1.48,0.55-1.85,1.93-1.84c6.48,0.05,12.97,0.08,19.45-0.01
	c1.85-0.03,2.13,0.78,2.09,2.33C204.3,428.87,204.36,431.96,204.36,435.05z"/>
<path class="st0" d="M207.31,435.06c0-3.19,0.07-6.39-0.03-9.57c-0.05-1.59,0.52-2.04,2.07-2.03c6.39,0.07,12.77,0.07,19.16,0
	c1.63-0.02,2.29,0.39,2.26,2.16c-0.09,6.38-0.09,12.77,0,19.15c0.02,1.73-0.57,2.2-2.23,2.18c-6.29-0.08-12.57-0.12-18.86,0.02
	c-2.12,0.05-2.47-0.81-2.4-2.62C207.4,441.25,207.31,438.15,207.31,435.06z"/>
<path class="st0" d="M256.95,435.18c0,3.1-0.08,6.2,0.03,9.3c0.06,1.73-0.34,2.51-2.29,2.47c-6.3-0.11-12.61-0.11-18.91,0
	c-1.94,0.03-2.32-0.74-2.3-2.46c0.08-6.2,0.09-12.4,0-18.6c-0.03-1.77,0.42-2.47,2.33-2.44c6.3,0.11,12.61,0.12,18.91-0.01
	c1.98-0.04,2.33,0.71,2.26,2.44C256.87,428.97,256.95,432.08,256.95,435.18z"/>
<path class="st0" d="M350.38,423.49c3.19,0,6.38,0.05,9.57-0.02c1.43-0.03,2.16,0.23,2.14,1.93c-0.09,6.48-0.07,12.96-0.01,19.44
	c0.01,1.52-0.43,2.12-2.02,2.1c-6.48-0.07-12.97-0.05-19.45-0.01c-1.31,0.01-2.02-0.26-2-1.8c0.06-6.58,0.07-13.16-0.01-19.74
	c-0.02-1.72,0.8-1.94,2.2-1.92C344,423.53,347.19,423.49,350.38,423.49z"/>
<path class="st0" d="M403.31,446.66c-3.19,0-6.39-0.07-9.58,0.03c-1.65,0.05-2.28-0.42-2.26-2.17c0.09-6.38,0.09-12.77,0-19.15
	c-0.03-1.76,0.61-2.18,2.25-2.16c6.39,0.08,12.77,0.07,19.16,0.01c1.52-0.01,2.1,0.42,2.09,2.02c-0.07,6.48-0.08,12.97,0,19.45
	c0.02,1.63-0.57,2.04-2.08,1.99C409.7,446.6,406.5,446.66,403.31,446.66z"/>
<path class="st0" d="M429.42,423.49c3.09,0,6.19,0.07,9.28-0.03c1.62-0.05,2.31,0.38,2.28,2.15c-0.09,6.38-0.09,12.76,0,19.14
	c0.02,1.73-0.58,2.2-2.24,2.18c-6.38-0.08-12.77-0.06-19.15-0.01c-1.51,0.01-2.12-0.42-2.1-2.02c0.07-6.48,0.08-12.96,0-19.44
	c-0.02-1.61,0.53-2.05,2.06-2.01C422.84,423.55,426.13,423.49,429.42,423.49z"/>
<path class="st0" d="M455.63,423.25c3.19,0,6.39,0.05,9.58-0.02c1.46-0.03,2.15,0.3,2.13,1.96c-0.08,6.48-0.07,12.97,0,19.45
	c0.02,1.56-0.49,2.07-2.06,2.06c-6.49-0.07-12.97-0.08-19.46,0.01c-1.66,0.02-1.98-0.64-1.96-2.11c0.06-6.38,0.08-12.77-0.01-19.15
	c-0.02-1.69,0.49-2.28,2.2-2.22C449.24,423.33,452.44,423.25,455.63,423.25z"/>
<path class="st0" d="M481.9,446.91c-3.19,0-6.39-0.07-9.57,0.03c-1.65,0.05-2.28-0.43-2.25-2.17c0.09-6.38,0.09-12.76,0-19.14
	c-0.02-1.76,0.65-2.18,2.28-2.16c6.38,0.07,12.77,0.07,19.15,0c1.52-0.02,2.09,0.37,2.07,1.99c-0.08,6.48-0.07,12.96-0.01,19.44
	c0.02,1.58-0.56,2.08-2.09,2.04C488.28,446.85,485.09,446.91,481.9,446.91z"/>
<path class="st0" d="M87.57,472.66c-3.19,0-6.39-0.04-9.58,0.02c-1.39,0.03-2.21-0.17-2.19-1.9c0.09-6.59,0.07-13.17,0.01-19.76
	c-0.02-1.53,0.64-1.8,1.97-1.79c6.49,0.05,12.98,0.06,19.47-0.01c1.58-0.02,2.05,0.52,2.04,2.06c-0.07,6.49-0.08,12.98,0.01,19.46
	c0.02,1.68-0.69,1.98-2.14,1.95C93.96,472.6,90.77,472.66,87.57,472.66z"/>
<path class="st0" d="M113.91,449.24c3.2,0,6.39,0.05,9.59-0.02c1.41-0.03,2.2,0.19,2.18,1.91c-0.08,6.59-0.08,13.18,0,19.77
	c0.02,1.56-0.68,1.79-1.99,1.78c-6.49-0.04-12.98-0.06-19.47,0.01c-1.59,0.02-2.04-0.51-2.02-2.06c0.07-6.39,0.11-12.78-0.02-19.17
	c-0.04-1.98,0.74-2.32,2.45-2.26C107.72,449.32,110.81,449.24,113.91,449.24z"/>
<path class="st0" d="M140.04,472.66c-3.2,0-6.4-0.06-9.6,0.03c-1.55,0.04-2.09-0.49-2.08-2.06c0.06-6.5,0.05-13,0.01-19.5
	c-0.01-1.42,0.49-1.92,1.92-1.91c6.6,0.05,13.2,0.05,19.8,0c1.29-0.01,1.75,0.44,1.75,1.74c-0.04,6.6-0.06,13.2,0.01,19.8
	c0.02,1.72-0.8,1.95-2.21,1.92C146.44,472.61,143.24,472.66,140.04,472.66z"/>
<path class="st0" d="M166.16,472.66c-3.2,0-6.4-0.09-9.59,0.04c-1.75,0.07-2.18-0.57-2.16-2.23c0.08-6.39,0.07-12.78,0.01-19.17
	c-0.02-1.51,0.38-2.11,2-2.09c6.49,0.08,12.98,0.08,19.47,0c1.63-0.02,2.02,0.59,2,2.09c-0.06,6.39-0.08,12.78,0.01,19.17
	c0.02,1.66-0.42,2.29-2.16,2.23C172.55,472.57,169.35,472.66,166.16,472.66z"/>
<path class="st0" d="M192.58,449.24c3.29,0,6.59,0.05,9.88-0.02c1.4-0.03,1.94,0.42,1.93,1.87c-0.05,6.59-0.06,13.17,0,19.76
	c0.01,1.49-0.59,1.84-1.95,1.83c-6.49-0.05-12.98-0.06-19.46,0.01c-1.54,0.02-2.08-0.46-2.07-2.04c0.07-6.49,0.08-12.97-0.01-19.46
	c-0.02-1.65,0.6-2.01,2.09-1.97C186.19,449.3,189.38,449.24,192.58,449.24z"/>
<path class="st0" d="M207.31,460.57c0-3.09,0.06-6.19-0.03-9.28c-0.05-1.52,0.38-2.1,2-2.08c6.49,0.08,12.98,0.08,19.47,0
	c1.62-0.02,2.02,0.58,2.01,2.09c-0.06,6.49-0.06,12.97,0,19.46c0.01,1.39-0.39,1.93-1.85,1.92c-6.59-0.06-13.18-0.06-19.77,0
	c-1.47,0.01-1.88-0.55-1.85-1.93C207.36,467.35,207.31,463.96,207.31,460.57z"/>
<path class="st0" d="M245.4,472.66c-3.29,0-6.58-0.07-9.87,0.03c-1.59,0.05-2.05-0.54-2.04-2.07c0.06-6.38,0.07-12.76,0-19.14
	c-0.02-1.63,0.4-2.29,2.17-2.27c6.38,0.09,12.77,0.09,19.15,0c1.73-0.02,2.2,0.54,2.18,2.22c-0.08,6.28-0.12,12.56,0.01,18.84
	c0.04,2.1-0.78,2.5-2.62,2.43C251.39,472.57,248.4,472.66,245.4,472.66z"/>
<path class="st0" d="M335.84,461.17c0,3.19-0.05,6.39,0.02,9.58c0.03,1.38-0.38,1.94-1.85,1.93c-6.59-0.06-13.18-0.06-19.76,0
	c-1.47,0.01-1.86-0.57-1.85-1.94c0.05-6.49,0.06-12.97-0.01-19.46c-0.02-1.51,0.37-2.09,1.99-2.07c6.49,0.08,12.98,0.08,19.46,0
	c1.61-0.02,2.06,0.57,2.02,2.09C335.78,454.58,335.84,457.88,335.84,461.17z"/>
<path class="st0" d="M350.77,449.24c3.09,0,6.19,0.07,9.28-0.03c1.56-0.05,2.07,0.45,2.05,2.03c-0.08,6.48-0.06,12.97-0.01,19.45
	c0.01,1.33-0.3,2-1.81,1.99c-6.58-0.06-13.17-0.05-19.75,0c-1.42,0.01-1.91-0.47-1.9-1.89c0.05-6.58,0.06-13.17,0-19.75
	c-0.01-1.5,0.64-1.85,1.98-1.82C343.98,449.28,347.38,449.24,350.77,449.24z"/>
<path class="st0" d="M376.32,449.24c3.19,0,6.39,0.04,9.58-0.02c1.4-0.03,2.21,0.18,2.19,1.91c-0.08,6.59-0.07,13.17-0.01,19.76
	c0.02,1.54-0.67,1.8-1.99,1.79c-6.49-0.04-12.98-0.06-19.47,0.01c-1.59,0.02-2.04-0.54-2.03-2.08c0.07-6.49,0.08-12.97-0.01-19.46
	c-0.02-1.69,0.69-1.97,2.13-1.93C369.93,449.29,373.13,449.24,376.32,449.24z"/>
<path class="st0" d="M403,472.66c-3.2,0-6.41-0.07-9.6,0.03c-1.65,0.05-2.29-0.42-2.27-2.18c0.09-6.4,0.07-12.8,0.01-19.2
	c-0.02-1.51,0.37-2.12,2-2.1c6.5,0.08,13.01,0.08,19.51,0c1.68-0.02,1.98,0.72,1.97,2.16c-0.05,6.4-0.08,12.8,0.01,19.2
	c0.03,1.83-0.76,2.15-2.33,2.11C409.2,472.6,406.1,472.66,403,472.66z"/>
<path class="st0" d="M440.94,461.17c0,3.09-0.07,6.19,0.03,9.28c0.06,1.64-0.41,2.27-2.16,2.25c-6.38-0.09-12.77-0.09-19.16,0
	c-1.75,0.02-2.19-0.61-2.17-2.26c0.08-6.38,0.07-12.77,0-19.15c-0.02-1.52,0.37-2.1,2-2.08c6.48,0.08,12.97,0.08,19.46,0
	c1.6-0.02,2.07,0.56,2.03,2.09C440.89,454.58,440.94,457.88,440.94,461.17z"/>
<path class="st0" d="M455.53,449.24c3.19,0,6.39,0.06,9.58-0.03c1.5-0.04,2.11,0.34,2.09,1.98c-0.09,6.49-0.08,12.97-0.01,19.46
	c0.02,1.59-0.54,2.05-2.07,2.04c-6.49-0.06-12.98-0.08-19.46,0.01c-1.69,0.02-1.95-0.71-1.94-2.15c0.05-6.39,0.08-12.77-0.01-19.16
	c-0.02-1.74,0.58-2.23,2.24-2.17C449.14,449.32,452.34,449.24,455.53,449.24z"/>
<path class="st0" d="M482.25,449.24c3.09,0,6.19,0.07,9.28-0.03c1.58-0.05,2.05,0.48,2.03,2.05c-0.07,6.38-0.07,12.77,0,19.15
	c0.02,1.6-0.35,2.32-2.14,2.29c-6.38-0.09-12.77-0.09-19.15,0c-1.71,0.02-2.22-0.53-2.2-2.22c0.08-6.28,0.12-12.57-0.02-18.85
	c-0.05-2.11,0.8-2.49,2.62-2.42C475.86,449.32,479.06,449.24,482.25,449.24z"/>
<path class="st0" d="M545.92,460.9c0,3.29-0.05,6.59,0.02,9.88c0.03,1.42-0.44,1.91-1.88,1.9c-6.59-0.06-13.18-0.04-19.77-0.01
	c-1.18,0.01-1.83-0.24-1.82-1.63c0.05-6.69,0.04-13.38,0-20.07c-0.01-1.27,0.39-1.76,1.71-1.75c6.69,0.05,13.38,0.06,20.07,0
	c1.66-0.02,1.68,0.92,1.67,2.1C545.9,454.51,545.92,457.71,545.92,460.9z"/>
<path class="st0" d="M60.98,475.46c3.19,0,6.39,0.07,9.58-0.03c1.63-0.05,2.28,0.37,2.26,2.14c-0.1,6.39-0.09,12.77,0,19.16
	c0.02,1.73-0.55,2.2-2.22,2.18c-6.39-0.08-12.78-0.07-19.17-0.01c-1.51,0.02-2.12-0.38-2.1-2c0.08-6.49,0.08-12.97,0-19.46
	c-0.02-1.6,0.55-2.06,2.07-2.01C54.59,475.52,57.79,475.46,60.98,475.46z"/>
<path class="st0" d="M99.26,487.53c0,3.09-0.06,6.19,0.03,9.28c0.04,1.51-0.39,2.12-2.01,2.1c-6.49-0.07-12.97-0.08-19.46,0
	c-1.62,0.02-2.02-0.56-2.01-2.08c0.07-6.38,0.07-12.77,0-19.15c-0.02-1.64,0.41-2.28,2.16-2.25c6.39,0.09,12.77,0.09,19.16,0
	c1.74-0.02,2.22,0.57,2.17,2.23C99.18,480.94,99.26,484.24,99.26,487.53z"/>
<path class="st0" d="M125.64,487.17c0,3.19-0.05,6.39,0.02,9.58c0.03,1.43-0.25,2.18-1.94,2.16c-6.59-0.08-13.18-0.06-19.77-0.01
	c-1.28,0.01-1.77-0.41-1.76-1.72c0.04-6.69,0.05-13.37,0-20.06c-0.01-1.35,0.56-1.68,1.78-1.67c6.59,0.04,13.18,0.07,19.77-0.02
	c1.72-0.02,1.94,0.75,1.91,2.17C125.59,480.78,125.64,483.98,125.64,487.17z"/>
<path class="st0" d="M140.19,498.87c-3.3,0-6.6-0.05-9.9,0.02c-1.43,0.03-1.93-0.5-1.92-1.92c0.05-6.6,0.04-13.2,0.01-19.8
	c-0.01-1.29,0.51-1.75,1.77-1.74c6.6,0.03,13.2,0.05,19.8-0.01c1.46-0.01,1.9,0.54,1.89,1.94c-0.05,6.5-0.06,13,0.01,19.49
	c0.02,1.58-0.5,2.09-2.06,2.04C146.59,498.81,143.39,498.88,140.19,498.87z"/>
<path class="st0" d="M166.11,475.46c3.29,0,6.59,0.05,9.88-0.02c1.41-0.03,1.91,0.43,1.9,1.87c-0.06,6.59-0.06,13.17,0,19.76
	c0.01,1.5-0.61,1.84-1.96,1.83c-6.49-0.05-12.98-0.06-19.47,0.01c-1.57,0.02-2.07-0.48-2.05-2.05c0.07-6.49,0.08-12.97,0-19.46
	c-0.02-1.66,0.65-2,2.12-1.96C159.72,475.51,162.92,475.46,166.11,475.46z"/>
<path class="st0" d="M192.57,498.88c-3.19,0-6.39-0.06-9.58,0.03c-1.51,0.04-2.11-0.35-2.09-1.99c0.08-6.48,0.08-12.97,0-19.45
	c-0.02-1.59,0.55-2.05,2.08-2.04c6.49,0.06,12.97,0.07,19.46-0.01c1.69-0.02,1.95,0.72,1.94,2.15c-0.05,6.38-0.07,12.77,0.01,19.15
	c0.02,1.74-0.59,2.23-2.25,2.18C198.96,498.8,195.76,498.88,192.57,498.88z"/>
<path class="st0" d="M230.74,487.28c0,3.19-0.07,6.39,0.03,9.58c0.05,1.57-0.5,2.07-2.06,2.05c-6.49-0.07-12.97-0.08-19.46,0
	c-1.67,0.02-1.97-0.68-1.95-2.13c0.06-6.38,0.08-12.77-0.01-19.16c-0.02-1.71,0.52-2.22,2.21-2.2c6.39,0.08,12.78,0.09,19.16,0
	c1.8-0.03,2.16,0.69,2.12,2.28C230.67,480.89,230.74,484.09,230.74,487.28z"/>
<path class="st0" d="M245.26,498.88c-3.1,0-6.21-0.08-9.3,0.03c-1.73,0.06-2.51-0.33-2.48-2.28c0.11-6.3,0.11-12.6,0-18.9
	c-0.04-1.95,0.72-2.32,2.46-2.3c6.2,0.08,12.41,0.09,18.61,0c1.76-0.02,2.49,0.37,2.45,2.31c-0.11,6.3-0.12,12.6,0.01,18.9
	c0.04,1.96-0.7,2.34-2.44,2.28C251.47,498.79,248.36,498.88,245.26,498.88z"/>
<path class="st0" d="M282.96,487.06c0,3.19-0.07,6.39,0.03,9.58c0.05,1.62-0.35,2.3-2.14,2.28c-6.39-0.1-12.78-0.09-19.16,0
	c-1.72,0.02-2.21-0.53-2.19-2.21c0.08-6.38,0.07-12.77,0.01-19.16c-0.01-1.49,0.34-2.13,1.98-2.11c6.49,0.08,12.98,0.07,19.46,0
	c1.57-0.02,2.09,0.49,2.04,2.05C282.89,480.67,282.96,483.87,282.96,487.06z"/>
<path class="st0" d="M297.33,498.87c-3.09,0-6.19-0.07-9.28,0.03c-1.56,0.05-2.06-0.45-2.04-2.03c0.08-6.48,0.05-12.96,0.02-19.45
	c-0.01-1.32,0.29-2.01,1.81-2c6.58,0.06,13.17,0.05,19.75,0c1.41-0.01,1.92,0.47,1.91,1.89c-0.05,6.58-0.05,13.16,0,19.74
	c0.01,1.5-0.65,1.84-1.99,1.82C304.12,498.84,300.72,498.87,297.33,498.87z"/>
<path class="st0" d="M312.41,487.27c0-3.19,0.07-6.39-0.03-9.57c-0.05-1.62,0.37-2.3,2.15-2.27c6.38,0.09,12.77,0.09,19.16,0
	c1.72-0.02,2.2,0.56,2.18,2.23c-0.08,6.28-0.09,12.57,0,18.85c0.02,1.76-0.41,2.45-2.32,2.42c-6.38-0.11-12.77-0.09-19.16-0.01
	c-1.6,0.02-2.06-0.52-2.02-2.06C312.48,493.66,312.41,490.46,312.41,487.27z"/>
<path class="st0" d="M350.31,475.46c3.19,0,6.39,0.04,9.58-0.02c1.4-0.03,2.22,0.19,2.2,1.91c-0.08,6.58-0.07,13.16,0,19.75
	c0.02,1.52-0.61,1.81-1.95,1.8c-6.48-0.05-12.97-0.06-19.45,0c-1.55,0.02-2.09-0.48-2.07-2.05c0.07-6.48,0.07-12.96,0-19.45
	c-0.02-1.65,0.66-2.01,2.13-1.98C343.93,475.51,347.12,475.46,350.31,475.46z"/>
<path class="st0" d="M364.64,486.99c0-3.09,0.07-6.19-0.03-9.28c-0.05-1.6,0.33-2.32,2.12-2.29c6.48,0.09,12.97,0.07,19.46,0.01
	c1.42-0.01,1.91,0.47,1.89,1.89c-0.05,6.58-0.04,13.17-0.01,19.75c0.01,1.21-0.32,1.82-1.67,1.81c-6.69-0.04-13.37-0.06-20.06,0.01
	c-1.62,0.02-1.74-0.79-1.72-2.04C364.67,493.57,364.64,490.28,364.64,486.99z"/>
<path class="st0" d="M391.16,486.98c0-3.2,0.04-6.4-0.02-9.6c-0.03-1.39,0.41-1.96,1.88-1.95c6.6,0.06,13.2,0.05,19.81,0.01
	c1.27-0.01,1.79,0.42,1.78,1.73c-0.04,6.6-0.04,13.2,0.01,19.8c0.01,1.41-0.46,1.94-1.91,1.92c-6.6-0.05-13.21-0.06-19.81,0.01
	c-1.58,0.02-1.78-0.73-1.76-2.02C391.2,493.58,391.16,490.28,391.16,486.98z"/>
<path class="st0" d="M429.12,498.87c-3.29,0-6.59-0.04-9.88,0.02c-1.26,0.02-1.76-0.36-1.75-1.69c0.05-6.68,0.05-13.36,0.01-20.05
	c-0.01-1.32,0.55-1.72,1.79-1.71c6.58,0.03,13.17,0.04,19.75-0.01c1.39-0.01,1.94,0.42,1.92,1.87c-0.05,6.58-0.05,13.17,0,19.75
	c0.01,1.48-0.61,1.87-1.97,1.84C435.71,498.83,432.41,498.87,429.12,498.87z"/>
<path class="st0" d="M455.3,498.88c-3.09,0-6.19-0.06-9.28,0.03c-1.58,0.05-2.34-0.3-2.31-2.11c0.09-6.48,0.07-12.97,0.01-19.45
	c-0.01-1.41,0.44-1.92,1.88-1.91c6.58,0.05,13.17,0.06,19.76,0c1.49-0.01,1.84,0.62,1.83,1.97c-0.05,6.48-0.06,12.97,0.01,19.45
	c0.02,1.55-0.43,2.11-2.02,2.05C461.88,498.8,458.59,498.88,455.3,498.88z"/>
<path class="st0" d="M493.53,487.16c0,3.29-0.06,6.58,0.03,9.87c0.04,1.44-0.47,1.88-1.89,1.87c-6.48-0.06-12.97-0.06-19.45,0
	c-1.47,0.01-2.16-0.34-2.14-1.98c0.07-6.48,0.07-12.96,0-19.44c-0.02-1.57,0.51-2.06,2.07-2.05c6.38,0.07,12.77,0.1,19.15-0.01
	c1.96-0.03,2.33,0.76,2.27,2.47C493.46,480.97,493.53,484.07,493.53,487.16z"/>
<path class="st0" d="M507.47,498.88c-3.09,0-6.19-0.06-9.28,0.03c-1.49,0.04-2.13-0.32-2.11-1.97c0.08-6.48,0.08-12.97,0-19.45
	c-0.02-1.57,0.51-2.06,2.06-2.05c6.49,0.06,12.97,0.08,19.46-0.01c1.67-0.02,1.97,0.68,1.96,2.14c-0.06,6.38-0.08,12.77,0.01,19.15
	c0.02,1.72-0.54,2.25-2.23,2.2C514.06,498.8,510.76,498.88,507.47,498.88z"/>
<path class="st0" d="M533.88,498.88c-3.09,0-6.19-0.05-9.28,0.02c-1.45,0.04-2.16-0.27-2.14-1.95c0.08-6.59,0.06-13.17,0.01-19.76
	c-0.01-1.28,0.42-1.76,1.72-1.75c6.69,0.04,13.38,0.05,20.06,0c1.35-0.01,1.69,0.55,1.68,1.79c-0.04,6.59-0.07,13.17,0.02,19.76
	c0.02,1.73-0.78,1.94-2.19,1.91C540.47,498.83,537.17,498.88,533.88,498.88z"/>
<path class="st0" d="M272.12,317.69c3.2,0,6.39,0.05,9.59-0.02c1.38-0.03,1.94,0.37,1.93,1.84c-0.06,6.59-0.06,13.18,0,19.77
	c0.01,1.46-0.53,1.87-1.92,1.85c-6.49-0.05-12.98-0.06-19.47,0c-1.5,0.01-2.11-0.36-2.09-1.99c0.08-6.49,0.08-12.98,0-19.47
	c-0.02-1.61,0.56-2.05,2.08-2.01C265.53,317.75,268.82,317.69,272.12,317.69z"/>
<path class="st0" d="M72.83,524.16c-7.84,0-15.68,0-23.51-0.01c0.01-6.87,0.09-13.75,0-20.62c-0.02-1.82,0.48-2.41,2.34-2.38
	c6.28,0.11,12.56,0.1,18.83,0c1.86-0.03,2.35,0.58,2.33,2.38C72.74,510.41,72.81,517.29,72.83,524.16z"/>
<path class="st0" d="M99.3,524.15c-7.84,0.01-15.68,0.01-23.51,0.02c0.02-6.7,0.11-13.4,0-20.1c-0.03-2.12,0.37-3,2.75-2.93
	c6,0.18,12.01,0.18,18.01,0c2.36-0.07,2.8,0.77,2.76,2.91C99.19,510.74,99.29,517.44,99.3,524.15z"/>
<path class="st0" d="M125.69,524.15c-7.84,0-15.67,0-23.51,0c0.01-6.87,0.09-13.75,0.01-20.62c-0.02-1.8,0.47-2.41,2.33-2.38
	c6.28,0.1,12.56,0.11,18.84,0c1.86-0.03,2.36,0.56,2.34,2.38C125.6,510.4,125.67,517.28,125.69,524.15z"/>
<path class="st1" d="M177.91,524.16c-7.84,0-15.67,0-23.51,0c0.01-6.88,0.09-13.75,0-20.63c-0.02-1.81,0.46-2.41,2.33-2.38
	c6.28,0.11,12.56,0.1,18.84,0c1.85-0.03,2.36,0.57,2.34,2.38C177.83,510.4,177.9,517.28,177.91,524.16z"/>
<path class="st0" d="M204.41,524.14c-7.84,0.01-15.68,0.01-23.52,0.02c0.02-6.7,0.11-13.4,0.01-20.09c-0.03-2.12,0.37-3,2.75-2.93
	c6,0.18,12,0.18,18,0c2.36-0.07,2.8,0.77,2.77,2.91C204.3,510.74,204.39,517.44,204.41,524.14z"/>
<path class="st0" d="M230.78,524.15c-7.84,0-15.67,0.01-23.51,0.01c0.02-6.7,0.11-13.4,0-20.1c-0.03-2.12,0.37-2.99,2.75-2.92
	c6,0.18,12.01,0.18,18.01,0c2.37-0.07,2.8,0.77,2.76,2.91C230.67,510.74,230.76,517.45,230.78,524.15z"/>
<path class="st0" d="M283.01,524.15c-7.84,0-15.67,0.01-23.51,0.01c0.02-6.87,0.09-13.75,0.01-20.62c-0.02-1.8,0.47-2.42,2.33-2.39
	c6.28,0.1,12.55,0.1,18.83,0c1.86-0.03,2.36,0.56,2.34,2.38C282.92,510.4,282.99,517.28,283.01,524.15z"/>
<path class="st0" d="M335.88,524.14c-7.84,0.01-15.68,0.01-23.52,0.02c0.02-6.7,0.11-13.4,0.01-20.09c-0.03-2.12,0.37-3,2.75-2.93
	c6,0.18,12,0.18,18,0c2.36-0.07,2.8,0.77,2.76,2.91C335.77,510.74,335.87,517.44,335.88,524.14z"/>
<path class="st0" d="M388.11,524.14c-7.84,0.01-15.68,0.01-23.52,0.02c0.02-6.7,0.11-13.4,0-20.1c-0.03-2.12,0.37-3,2.75-2.93
	c6,0.18,12,0.18,18,0c2.36-0.07,2.8,0.77,2.77,2.91C388,510.74,388.09,517.44,388.11,524.14z"/>
<path class="st0" d="M467.22,524.16c-7.84-0.01-15.68-0.01-23.52-0.02c0.02-6.7,0.11-13.4,0-20.1c-0.04-2.14,0.4-2.98,2.77-2.91
	c6,0.18,12,0.18,18,0c2.39-0.07,2.79,0.82,2.75,2.93C467.11,510.77,467.2,517.47,467.22,524.16z"/>
<path class="st0" d="M519.58,524.14c-7.84,0.01-15.68,0.01-23.52,0.02c0.02-6.7,0.11-13.4,0-20.1c-0.03-2.12,0.37-3,2.75-2.93
	c6,0.18,12,0.18,18,0c2.36-0.07,2.8,0.77,2.76,2.91C519.47,510.74,519.57,517.44,519.58,524.14z"/>
<path class="st0" d="M545.96,524.15c-7.84,0-15.68,0.01-23.51,0.01c0.01-6.87,0.09-13.75,0.01-20.62c-0.02-1.8,0.47-2.42,2.33-2.38
	c6.28,0.1,12.56,0.1,18.83,0c1.85-0.03,2.36,0.57,2.34,2.38C545.87,510.4,545.95,517.28,545.96,524.15z"/>
<path class="st0" d="M309.53,524.13c-6.89,0.02-13.78-0.01-20.67,0.09c-1.85,0.03-2.42-0.63-2.4-2.43c0.08-5.89,0.11-11.78,0-17.67
	c-0.04-2.08,0.59-2.76,2.71-2.73c6.69,0.1,13.38,0,20.07-0.03C309.33,508.95,309.43,516.54,309.53,524.13z"/>
<path class="st0" d="M338.87,501.36c6.69,0.02,13.38,0.12,20.07,0.02c2.11-0.03,2.75,0.66,2.71,2.73
	c-0.12,5.89-0.09,11.78-0.01,17.67c0.03,1.8-0.54,2.47-2.39,2.44c-6.89-0.1-13.78-0.07-20.67-0.09
	C338.68,516.54,338.77,508.95,338.87,501.36z"/>
<path class="st0" d="M441,524.13c-6.89,0.02-13.78-0.01-20.67,0.09c-1.85,0.03-2.42-0.64-2.39-2.44c0.08-5.89,0.11-11.78-0.01-17.67
	c-0.04-2.08,0.6-2.76,2.71-2.73c6.69,0.1,13.38,0,20.07-0.02C440.81,508.95,440.9,516.54,441,524.13z"/>
<path class="st0" d="M470.34,501.36c6.69,0.02,13.38,0.12,20.07,0.03c2.12-0.03,2.75,0.66,2.7,2.73c-0.12,5.89-0.09,11.78,0,17.67
	c0.03,1.81-0.56,2.46-2.4,2.43c-6.89-0.1-13.78-0.07-20.67-0.09C470.33,516.54,469.75,508.94,470.34,501.36z"/>
<path class="st0" d="M23.57,512.68c0-2.99,0.07-5.99-0.02-8.98c-0.05-1.63,0.44-2.32,2.19-2.3c6.18,0.08,12.37,0.07,18.56,0.01
	c1.57-0.02,2.08,0.57,2.07,2.1c-0.05,6.18-0.07,12.37,0.01,18.55c0.02,1.79-0.75,2.17-2.34,2.16c-6.08-0.06-12.17-0.07-18.26,0
	c-1.7,0.02-2.29-0.6-2.24-2.27C23.64,518.86,23.57,515.77,23.57,512.68z"/>
<path class="st0" d="M151.43,513.07c0,2.89-0.07,5.79,0.03,8.68c0.06,1.75-0.43,2.51-2.34,2.48c-6.08-0.1-12.17-0.08-18.26-0.01
	c-1.69,0.02-2.26-0.59-2.24-2.26c0.07-6.08,0.09-12.17-0.01-18.25c-0.03-1.93,0.77-2.33,2.49-2.31c5.99,0.07,11.97,0.09,17.96-0.01
	c1.84-0.03,2.46,0.59,2.39,2.41C151.34,506.89,151.43,509.98,151.43,513.07z"/>
<path class="st0" d="M244.99,524.19c-2.99,0-5.99-0.06-8.98,0.03c-1.64,0.05-2.32-0.46-2.3-2.2c0.08-6.18,0.07-12.37,0.01-18.55
	c-0.02-1.58,0.58-2.08,2.11-2.06c6.19,0.06,12.37,0.07,18.56-0.01c1.79-0.02,2.17,0.75,2.16,2.34c-0.06,6.08-0.07,12.17,0.01,18.25
	c0.02,1.71-0.63,2.27-2.29,2.23C251.17,524.13,248.08,524.19,244.99,524.19z"/>
<path class="st0" d="M402.81,524.19c-2.99,0-5.99-0.06-8.98,0.02c-1.66,0.05-2.3-0.52-2.28-2.23c0.07-6.08,0.07-12.17,0.01-18.25
	c-0.02-1.59,0.38-2.36,2.16-2.34c6.18,0.08,12.37,0.06,18.56,0.01c1.53-0.01,2.12,0.5,2.1,2.07c-0.06,6.18-0.07,12.37,0.01,18.55
	c0.02,1.75-0.67,2.24-2.3,2.19C409,524.13,405.91,524.19,402.81,524.19z"/>
<path class="st0" d="M560.58,501.43c2.89,0,5.79,0.07,8.68-0.03c1.74-0.06,2.51,0.41,2.48,2.33c-0.1,6.08-0.08,12.17,0,18.25
	c0.02,1.7-0.6,2.26-2.26,2.24c-6.08-0.07-12.17-0.09-18.26,0.01c-1.93,0.03-2.33-0.78-2.31-2.49c0.07-5.98,0.09-11.97,0-17.95
	c-0.03-1.84,0.58-2.46,2.41-2.39C554.39,501.51,557.49,501.43,560.58,501.43z"/>
</svg>
