<?xml version="1.0" encoding="utf-8"?>
<!-- Generator: Adobe Illustrator 26.5.3, SVG Export Plug-In . SVG Version: 6.00 Build 0)  -->
<svg version="1.1" id="Vrstva_1" xmlns="http://www.w3.org/2000/svg" xmlns:xlink="http://www.w3.org/1999/xlink" x="0px" y="0px"
	 viewBox="0 0 595.28 841.89" style="enable-background:new 0 0 595.28 841.89;" xml:space="preserve">
<style type="text/css">
	.st0{fill:#FAB50D;}
	.st1{fill:#5188B5;}
</style>
<path class="st0" d="M373.08,444.25c0,16.82-0.01,33.63,0.01,50.45c0,3.42-0.14,6.73-3.76,8.56c-3.71,1.87-6.23-0.23-8.87-2.45
	c-6.24-5.25-7.17-5.25-13.82-0.73c-7.01,4.77-14.8,4.71-21.75-0.58c-4.21-3.21-7.71-3.33-12,0.1c-6.69,5.36-15.18,5.38-22.13,0.02
	c-4.52-3.48-8.12-3.22-12.47,0.11c-6.88,5.27-15.16,5.02-22.17-0.14c-5.27-3.89-7.3-3.8-12.23,0.43c-1.26,1.08-2.51,2.23-3.95,3.02
	c-4.17,2.27-8.61,0.02-9.37-4.64c-0.13-0.82-0.12-1.66-0.12-2.49c0.04-32.96-0.24-65.93,0.21-98.89
	c0.45-33.51,26.41-62.77,59.32-67.77c39.44-6,74.62,18.89,81.96,58.16c0.85,4.55,1.06,9.26,1.1,13.9
	C373.17,415.61,373.08,429.93,373.08,444.25z"/>
<path class="st1" d="M327.51,409.25c0,3.31,0.11,6.63-0.03,9.93c-0.15,3.68-2.21,5.83-5.88,6.1c-3.7,0.27-6.37-1.61-6.55-5.26
	c-0.34-7.09-0.33-14.21-0.05-21.31c0.15-3.73,2.9-5.53,6.5-5.37c3.61,0.16,5.83,2.2,5.95,5.98c0.1,3.31,0.02,6.62,0.02,9.93
	C327.48,409.25,327.49,409.25,327.51,409.25z"/>
<path class="st1" d="M288.58,409.59c-0.01,3.16,0.07,6.33-0.03,9.49c-0.12,3.69-1.96,6-5.79,6.15c-3.58,0.14-6.31-1.36-6.66-5.22
	c-0.64-7.13-0.73-14.29,0.06-21.42c0.42-3.82,3.05-5.49,6.65-5.26c3.7,0.24,5.67,2.53,5.75,6.26
	C288.64,402.93,288.58,406.26,288.58,409.59z"/>
</svg>
