<svg width="140" height="208" viewBox="0 0 140 208" fill="none" xmlns="http://www.w3.org/2000/svg">
<path d="M28.39 134.8C28.39 157.28 28.24 179.76 28.51 202.24C28.57 206.98 27.09 208.2 22.64 207.92C16.84 207.56 10.98 207.62 5.16999 207.91C1.38999 208.09 0.30999 206.75 0.33999 203.07C0.48999 184.59 0.409998 166.1 0.409998 147.62C0.409998 122.31 0.379992 96.9999 0.419992 71.6799C0.459992 38.0699 22.98 9.95996 55.71 2.59996C93.55 -5.91004 131.81 19.9 138.16 58.23C144.59 97.03 119.53 132.52 80.94 138.72C69.76 140.52 58.36 139.51 47.06 139.58C44.64 139.6 43.4 138.68 43.44 136.04C43.54 129.21 43.56 122.38 43.44 115.56C43.39 112.53 44.92 112.01 47.49 112.04C55.15 112.14 62.8 112.1 70.46 112.07C92.5 111.96 110.71 94.8399 112.04 73.0199C113.36 51.1999 97.86 32.44 76.36 28.85C51.42 24.68 27.8 45.5099 28.31 69.8699C28.75 91.49 28.39 113.15 28.39 134.8Z" fill="#5088B5"/>
</svg>
